<svg xmlns="http://www.w3.org/2000/svg" xmlns:xlink="http://www.w3.org/1999/xlink" viewBox="0 0 2171.4 330.54"><defs><style>.cls-1{fill:url(#radial-gradient);}.cls-2{fill:url(#radial-gradient-2);}.cls-3{fill:url(#radial-gradient-3);}.cls-4{fill:url(#radial-gradient-4);}.cls-5{fill:url(#radial-gradient-5);}.cls-6{fill:url(#radial-gradient-6);}.cls-7{fill:url(#radial-gradient-7);}.cls-8{fill:url(#radial-gradient-8);}.cls-9{fill:url(#linear-gradient);}.cls-10{fill:url(#linear-gradient-2);}.cls-11{fill:url(#linear-gradient-3);}.cls-12{fill:url(#linear-gradient-4);}.cls-13{fill:url(#radial-gradient-9);}.cls-14{fill:url(#radial-gradient-11);}.cls-15{fill:url(#radial-gradient-13);}.cls-16{fill:url(#radial-gradient-15);}.cls-17{fill:url(#radial-gradient-17);}.cls-18{fill:url(#radial-gradient-19);}.cls-19{fill:url(#radial-gradient-21);}.cls-20{fill:url(#radial-gradient-23);}.cls-21{fill:url(#linear-gradient-5);}.cls-22{fill:url(#linear-gradient-7);}.cls-23{fill:url(#linear-gradient-9);}.cls-24{fill:url(#linear-gradient-11);}.cls-25{fill:url(#radial-gradient-25);}.cls-26{fill:url(#radial-gradient-26);}.cls-27{fill:url(#radial-gradient-27);}.cls-28{fill:url(#radial-gradient-28);}.cls-29{fill:url(#radial-gradient-29);}.cls-30{fill:url(#radial-gradient-30);}.cls-31{fill:url(#radial-gradient-31);}.cls-32{fill:url(#radial-gradient-32);}.cls-33{fill:url(#radial-gradient-33);}.cls-34{fill:url(#radial-gradient-34);}.cls-35{fill:url(#radial-gradient-35);}.cls-36{fill:url(#radial-gradient-36);}.cls-37{fill:url(#radial-gradient-37);}.cls-38{fill:url(#radial-gradient-38);}.cls-39{fill:url(#radial-gradient-39);}.cls-40{fill:url(#radial-gradient-40);}.cls-41{fill:url(#radial-gradient-41);}.cls-42{fill:url(#radial-gradient-42);}.cls-43{fill:url(#radial-gradient-43);}.cls-44{fill:url(#radial-gradient-44);}.cls-45{fill:url(#radial-gradient-45);}.cls-46{fill:url(#radial-gradient-46);}.cls-47{fill:url(#radial-gradient-47);}.cls-48{fill:url(#radial-gradient-48);}.cls-49{fill:url(#radial-gradient-49);}.cls-50{fill:url(#radial-gradient-50);}.cls-51{fill:url(#radial-gradient-51);}.cls-52{fill:url(#radial-gradient-52);}.cls-53{fill:url(#radial-gradient-53);}.cls-54{fill:url(#radial-gradient-54);}.cls-55{fill:url(#radial-gradient-55);}.cls-56{fill:url(#radial-gradient-56);}.cls-57{fill:url(#radial-gradient-57);}.cls-58{fill:url(#radial-gradient-58);}.cls-59{fill:url(#radial-gradient-59);}.cls-60{fill:url(#radial-gradient-60);}.cls-61{fill:url(#radial-gradient-61);}.cls-62{fill:url(#radial-gradient-62);}.cls-63{fill:url(#radial-gradient-63);}.cls-64{fill:url(#radial-gradient-64);}.cls-65{fill:url(#radial-gradient-66);}.cls-66{fill:url(#radial-gradient-68);}.cls-67{fill:url(#radial-gradient-70);}.cls-68{fill:url(#radial-gradient-72);}.cls-69{fill:url(#radial-gradient-74);}.cls-70{fill:url(#radial-gradient-76);}.cls-71{fill:url(#radial-gradient-78);}.cls-72{fill:url(#radial-gradient-80);}.cls-73{fill:url(#radial-gradient-82);}.cls-74{fill:url(#radial-gradient-84);}.cls-75{fill:url(#radial-gradient-86);}.cls-76{fill:url(#radial-gradient-88);}.cls-77{fill:url(#radial-gradient-90);}.cls-78{fill:url(#radial-gradient-92);}.cls-79{fill:url(#radial-gradient-94);}.cls-80{fill:url(#radial-gradient-96);}.cls-81{fill:url(#radial-gradient-98);}.cls-82{fill:url(#radial-gradient-100);}.cls-83{fill:url(#radial-gradient-102);}.cls-84{fill:url(#radial-gradient-104);}.cls-85{fill:url(#radial-gradient-106);}.cls-86{fill:url(#radial-gradient-108);}.cls-87{fill:url(#radial-gradient-110);}.cls-88{fill:url(#radial-gradient-112);}.cls-89{fill:url(#radial-gradient-114);}.cls-90{fill:url(#radial-gradient-116);}.cls-91{fill:url(#radial-gradient-118);}.cls-92{fill:url(#radial-gradient-120);}.cls-93{fill:url(#radial-gradient-122);}.cls-94{fill:url(#radial-gradient-124);}.cls-95{fill:url(#radial-gradient-126);}.cls-96{fill:url(#radial-gradient-128);}.cls-97{fill:url(#radial-gradient-130);}.cls-98{fill:url(#radial-gradient-132);}.cls-99{fill:url(#radial-gradient-134);}.cls-100{fill:url(#radial-gradient-136);}.cls-101{fill:url(#radial-gradient-138);}.cls-102{fill:url(#radial-gradient-140);}</style><radialGradient id="radial-gradient" cx="110.45" cy="90.55" r="95.34" gradientUnits="userSpaceOnUse"><stop offset="0" stop-color="#fffffb"/><stop offset="1" stop-color="#ffce3e"/></radialGradient><radialGradient id="radial-gradient-2" cx="311.98" cy="90.55" r="83.85" xlink:href="#radial-gradient"/><radialGradient id="radial-gradient-3" cx="489.53" cy="91.89" r="87.18" xlink:href="#radial-gradient"/><radialGradient id="radial-gradient-4" cx="676.12" cy="90.55" r="85.34" xlink:href="#radial-gradient"/><radialGradient id="radial-gradient-5" cx="857.15" cy="90.55" r="86.06" xlink:href="#radial-gradient"/><radialGradient id="radial-gradient-6" cx="1034.15" cy="90.55" r="84.18" xlink:href="#radial-gradient"/><radialGradient id="radial-gradient-7" cx="1214.69" cy="90.55" r="83.85" xlink:href="#radial-gradient"/><radialGradient id="radial-gradient-8" cx="1392.24" cy="91.89" r="87.18" xlink:href="#radial-gradient"/><linearGradient id="linear-gradient" x1="1548.67" y1="160.12" x2="1683.92" y2="24.86" gradientUnits="userSpaceOnUse"><stop offset="0" stop-color="#49494b"/><stop offset="1" stop-color="#fff"/></linearGradient><linearGradient id="linear-gradient-2" x1="1683.14" y1="163.97" x2="1803.38" y2="43.73" xlink:href="#linear-gradient"/><linearGradient id="linear-gradient-3" x1="1869.91" y1="150.52" x2="1989.71" y2="30.71" xlink:href="#linear-gradient"/><linearGradient id="linear-gradient-4" x1="2030.31" y1="141.51" x2="2164.71" y2="7.11" xlink:href="#linear-gradient"/><radialGradient id="radial-gradient-9" cx="110.45" cy="90.55" r="99.31" gradientUnits="userSpaceOnUse"><stop offset="0" stop-color="#fedb29"/><stop offset="1" stop-color="#bd952e"/></radialGradient><radialGradient id="radial-gradient-11" cx="311.98" cy="90.55" r="87.84" xlink:href="#radial-gradient-9"/><radialGradient id="radial-gradient-13" cx="489.53" cy="91.89" r="91.18" xlink:href="#radial-gradient-9"/><radialGradient id="radial-gradient-15" cx="676.12" cy="90.55" r="89.34" xlink:href="#radial-gradient-9"/><radialGradient id="radial-gradient-17" cx="857.15" cy="90.55" r="90.06" xlink:href="#radial-gradient-9"/><radialGradient id="radial-gradient-19" cx="1034.15" cy="90.55" r="88.18" xlink:href="#radial-gradient-9"/><radialGradient id="radial-gradient-21" cx="1214.69" cy="90.55" r="87.84" xlink:href="#radial-gradient-9"/><radialGradient id="radial-gradient-23" cx="1392.24" cy="91.89" r="91.18" xlink:href="#radial-gradient-9"/><linearGradient id="linear-gradient-5" x1="1619.05" y1="181.1" x2="1619.05" gradientUnits="userSpaceOnUse"><stop offset="0" stop-color="#b6b8ba"/><stop offset="1" stop-color="#49494b"/></linearGradient><linearGradient id="linear-gradient-7" x1="1764.21" y1="177.31" x2="1764.21" y2="3.78" xlink:href="#linear-gradient-5"/><linearGradient id="linear-gradient-9" x1="1930.03" y1="181.1" x2="1930.03" xlink:href="#linear-gradient-5"/><linearGradient id="linear-gradient-11" x1="2097.74" y1="177.31" x2="2097.74" y2="3.78" xlink:href="#linear-gradient-5"/><radialGradient id="radial-gradient-25" cx="22.81" cy="275.44" r="20.33" xlink:href="#radial-gradient"/><radialGradient id="radial-gradient-26" cx="61.81" cy="275.44" r="24.83" xlink:href="#radial-gradient"/><radialGradient id="radial-gradient-27" cx="57.46" cy="228.54" r="15.79" xlink:href="#radial-gradient"/><radialGradient id="radial-gradient-28" cx="117.81" cy="275.94" r="26.14" xlink:href="#radial-gradient"/><radialGradient id="radial-gradient-29" cx="185.21" cy="275.44" r="30.04" xlink:href="#radial-gradient"/><radialGradient id="radial-gradient-30" cx="251.71" cy="275.94" r="25.76" xlink:href="#radial-gradient"/><radialGradient id="radial-gradient-31" cx="269.36" cy="232.94" r="13.38" xlink:href="#radial-gradient"/><radialGradient id="radial-gradient-32" cx="312.21" cy="275.94" r="25.76" xlink:href="#radial-gradient"/><radialGradient id="radial-gradient-33" cx="372.71" cy="274.94" r="25.76" xlink:href="#radial-gradient"/><radialGradient id="radial-gradient-34" cx="375.76" cy="232.29" r="15.78" xlink:href="#radial-gradient"/><radialGradient id="radial-gradient-35" cx="392.11" cy="212.79" r="5.85" xlink:href="#radial-gradient"/><radialGradient id="radial-gradient-36" cx="431.66" cy="275.44" r="26.38" xlink:href="#radial-gradient"/><radialGradient id="radial-gradient-37" cx="435.45" cy="236.44" r="14.99" xlink:href="#radial-gradient"/><radialGradient id="radial-gradient-38" cx="451.8" cy="212.79" r="5.85" xlink:href="#radial-gradient"/><radialGradient id="radial-gradient-39" cx="489.9" cy="275.94" r="26.23" xlink:href="#radial-gradient"/><radialGradient id="radial-gradient-40" cx="548.7" cy="274.94" r="26.42" xlink:href="#radial-gradient"/><radialGradient id="radial-gradient-41" cx="605.1" cy="275.44" r="24.83" xlink:href="#radial-gradient"/><radialGradient id="radial-gradient-42" cx="618.25" cy="231.94" r="6.96" xlink:href="#radial-gradient"/><radialGradient id="radial-gradient-43" cx="649.55" cy="274.94" r="23.3" xlink:href="#radial-gradient"/><radialGradient id="radial-gradient-44" cx="704.8" cy="274.94" r="26" xlink:href="#radial-gradient"/><radialGradient id="radial-gradient-45" cx="721.4" cy="317.89" r="8.83" xlink:href="#radial-gradient"/><radialGradient id="radial-gradient-46" cx="716.9" cy="231.89" r="14.35" xlink:href="#radial-gradient"/><radialGradient id="radial-gradient-47" cx="765.8" cy="275.94" r="25.76" xlink:href="#radial-gradient"/><radialGradient id="radial-gradient-48" cx="836.3" cy="272.14" r="28.04" xlink:href="#radial-gradient"/><radialGradient id="radial-gradient-49" cx="882.6" cy="275.44" r="27.21" xlink:href="#radial-gradient"/><radialGradient id="radial-gradient-50" cx="919.7" cy="261.69" r="35.95" xlink:href="#radial-gradient"/><radialGradient id="radial-gradient-51" cx="986.65" cy="275.44" r="25.47" xlink:href="#radial-gradient"/><radialGradient id="radial-gradient-52" cx="1042.05" cy="275.44" r="24.69" xlink:href="#radial-gradient"/><radialGradient id="radial-gradient-53" cx="1054.65" cy="232.94" r="13.37" xlink:href="#radial-gradient"/><radialGradient id="radial-gradient-54" cx="1098.29" cy="275.94" r="26.14" xlink:href="#radial-gradient"/><radialGradient id="radial-gradient-55" cx="1161.54" cy="275.44" r="26.43" xlink:href="#radial-gradient"/><radialGradient id="radial-gradient-56" cx="1172.69" cy="318.34" r="12.59" xlink:href="#radial-gradient"/><radialGradient id="radial-gradient-57" cx="1175.09" cy="231.89" r="14.35" xlink:href="#radial-gradient"/><radialGradient id="radial-gradient-58" cx="1230.09" cy="275.44" r="30.04" xlink:href="#radial-gradient"/><radialGradient id="radial-gradient-59" cx="1253.74" cy="232.94" r="13.37" xlink:href="#radial-gradient"/><radialGradient id="radial-gradient-60" cx="1314.79" cy="275.44" r="36.94" xlink:href="#radial-gradient"/><radialGradient id="radial-gradient-61" cx="1395.49" cy="275.94" r="25.76" xlink:href="#radial-gradient"/><radialGradient id="radial-gradient-62" cx="1445.24" cy="274.94" r="23.3" xlink:href="#radial-gradient"/><radialGradient id="radial-gradient-63" cx="1484.99" cy="272.14" r="28.04" xlink:href="#radial-gradient"/><radialGradient id="radial-gradient-64" cx="22.81" cy="275.44" r="22.17" xlink:href="#radial-gradient-9"/><radialGradient id="radial-gradient-66" cx="61.81" cy="275.44" r="26.82" xlink:href="#radial-gradient-9"/><radialGradient id="radial-gradient-68" cx="57.54" cy="228.54" r="17.79" xlink:href="#radial-gradient-9"/><radialGradient id="radial-gradient-70" cx="117.81" cy="275.94" r="28.13" xlink:href="#radial-gradient-9"/><radialGradient id="radial-gradient-72" cx="185.21" cy="275.44" r="32.31" xlink:href="#radial-gradient-9"/><radialGradient id="radial-gradient-74" cx="251.71" cy="275.94" r="27.76" xlink:href="#radial-gradient-9"/><radialGradient id="radial-gradient-76" cx="269.42" cy="232.94" r="15.29" xlink:href="#radial-gradient-9"/><radialGradient id="radial-gradient-78" cx="312.21" cy="275.94" r="27.76" xlink:href="#radial-gradient-9"/><radialGradient id="radial-gradient-80" cx="372.71" cy="274.94" r="27.76" xlink:href="#radial-gradient-9"/><radialGradient id="radial-gradient-82" cx="375.69" cy="232.29" r="17.67" xlink:href="#radial-gradient-9"/><radialGradient id="radial-gradient-84" cx="392.11" cy="212.79" r="7.82" xlink:href="#radial-gradient-9"/><radialGradient id="radial-gradient-86" cx="431.66" cy="275.44" r="28.37" xlink:href="#radial-gradient-9"/><radialGradient id="radial-gradient-88" cx="435.39" cy="236.44" r="16.72" xlink:href="#radial-gradient-9"/><radialGradient id="radial-gradient-90" cx="451.8" cy="212.79" r="7.82" xlink:href="#radial-gradient-9"/><radialGradient id="radial-gradient-92" cx="489.41" cy="275.94" r="28.47" xlink:href="#radial-gradient-9"/><radialGradient id="radial-gradient-94" cx="548.7" cy="274.94" r="28.42" xlink:href="#radial-gradient-9"/><radialGradient id="radial-gradient-96" cx="605.1" cy="275.44" r="26.82" xlink:href="#radial-gradient-9"/><radialGradient id="radial-gradient-98" cx="618.25" cy="231.94" r="8.93" xlink:href="#radial-gradient-9"/><radialGradient id="radial-gradient-100" cx="649.55" cy="274.94" r="25.26" xlink:href="#radial-gradient-9"/><radialGradient id="radial-gradient-102" cx="704.8" cy="274.94" r="27.99" xlink:href="#radial-gradient-9"/><radialGradient id="radial-gradient-104" cx="721.33" cy="317.89" r="10.85" xlink:href="#radial-gradient-9"/><radialGradient id="radial-gradient-106" cx="716.95" cy="231.89" r="16.27" xlink:href="#radial-gradient-9"/><radialGradient id="radial-gradient-108" cx="765.8" cy="275.94" r="27.76" xlink:href="#radial-gradient-9"/><radialGradient id="radial-gradient-110" cx="837.96" cy="272.14" r="30.29" xlink:href="#radial-gradient-9"/><radialGradient id="radial-gradient-112" cx="882.67" cy="275.44" r="29.25" xlink:href="#radial-gradient-9"/><radialGradient id="radial-gradient-114" cx="919.7" cy="261.69" r="37.93" xlink:href="#radial-gradient-9"/><radialGradient id="radial-gradient-116" cx="986.65" cy="275.44" r="27.47" xlink:href="#radial-gradient-9"/><radialGradient id="radial-gradient-118" cx="1042.05" cy="275.44" r="26.67" xlink:href="#radial-gradient-9"/><radialGradient id="radial-gradient-120" cx="1054.71" cy="232.94" r="15.29" xlink:href="#radial-gradient-9"/><radialGradient id="radial-gradient-122" cx="1098.29" cy="275.94" r="28.13" xlink:href="#radial-gradient-9"/><radialGradient id="radial-gradient-124" cx="1161.54" cy="275.44" r="28.43" xlink:href="#radial-gradient-9"/><radialGradient id="radial-gradient-126" cx="1172.63" cy="318.34" r="14.6" xlink:href="#radial-gradient-9"/><radialGradient id="radial-gradient-128" cx="1175.15" cy="231.89" r="16.27" xlink:href="#radial-gradient-9"/><radialGradient id="radial-gradient-130" cx="1230.09" cy="275.44" r="32.31" xlink:href="#radial-gradient-9"/><radialGradient id="radial-gradient-132" cx="1253.81" cy="232.94" r="15.29" xlink:href="#radial-gradient-9"/><radialGradient id="radial-gradient-134" cx="1314.79" cy="275.44" r="38.89" xlink:href="#radial-gradient-9"/><radialGradient id="radial-gradient-136" cx="1395.49" cy="275.94" r="27.76" xlink:href="#radial-gradient-9"/><radialGradient id="radial-gradient-138" cx="1445.24" cy="274.94" r="25.26" xlink:href="#radial-gradient-9"/><radialGradient id="radial-gradient-140" cx="1483.3" cy="272.14" r="30.29" xlink:href="#radial-gradient-9"/></defs><g id="Layer_2" data-name="Layer 2"><g id="Layer_1-2" data-name="Layer 1"><path class="cls-1" d="M102.14,173.31,38.18,34v110.6q0,15.26,3.3,19,4.52,5.13,14.28,5.12h5.86v4.52H4v-4.52H9.86q10.5,0,14.89-6.34,2.68-3.91,2.69-17.82V36.47q0-11-2.44-15.87a13.58,13.58,0,0,0-6.29-5.92Q14.14,12.3,4,12.3V7.78H50.88L110.93,137.3,170,7.78h46.87V12.3h-5.74q-10.62,0-15,6.35-2.69,3.9-2.69,17.82V144.63q0,15.26,3.42,19,4.51,5.13,14.28,5.12h5.74v4.52H146.58v-4.52h5.86q10.62,0,14.89-6.34,2.68-3.91,2.69-17.82V34L106.17,173.31Z"/><path class="cls-2" d="M313.57,4q32.22,0,55.85,24.48T393,89.57q0,37.73-23.81,62.62T311.62,177.1q-34.19,0-57.44-24.3T230.93,89.94q0-39.43,26.85-64.33Q281.11,4,313.57,4Zm-2.32,8.91q-22.22,0-35.64,16.48Q258.89,49.9,258.88,89.45q0,40.53,17.34,62.38,13.3,16.6,35.15,16.6,23.33,0,38.52-18.19t15.19-57.37q0-42.48-16.72-63.36Q334.94,12.92,311.25,12.91Z"/><path class="cls-3" d="M399.39,7.78h44.92L545.5,131.93V36.47q0-15.25-3.41-19-4.53-5.13-14.29-5.13h-5.73V7.78h57.61V12.3h-5.86q-10.5,0-14.89,6.35-2.68,3.9-2.68,17.82V176h-4.4L442.72,42.7V144.63q0,15.26,3.3,19,4.64,5.13,14.28,5.12h5.86v4.52H408.54v-4.52h5.74q10.62,0,15-6.34,2.68-3.91,2.69-17.82V29.51q-7.2-8.42-10.93-11.11a40.5,40.5,0,0,0-10.92-5,39,39,0,0,0-10.74-1.1Z"/><path class="cls-4" d="M736.67,4l4.27,52.25h-4.27q-6.48-19.53-16.73-29.42-14.78-14.28-38-14.29-31.62,0-48.1,25Q620.1,58.69,620.09,87.86q0,23.69,9.15,43.22t24,28.62q14.84,9.09,30.46,9.09a67.56,67.56,0,0,0,17.7-2.31,70.94,70.94,0,0,0,16.48-6.84V111.79q0-12.45-1.89-16.3a12.89,12.89,0,0,0-5.86-5.86q-4-2-14-2V83h64.09v4.64h-3.06q-9.51,0-13.06,6.35-2.45,4.52-2.44,17.82v50.66A124.41,124.41,0,0,1,714,173.56a121.25,121.25,0,0,1-30.39,3.54q-48,0-72.88-30.77Q592,123.26,592,93.11a89,89,0,0,1,10.5-41.87Q615,27.43,636.69,14.62,654.89,4,679.66,4a85.26,85.26,0,0,1,16.42,1.46q7.38,1.47,20.93,6.47,6.84,2.57,9.16,2.57a4.89,4.89,0,0,0,4-2.14c1.09-1.42,1.77-4.21,2-8.36Z"/><path class="cls-5" d="M838.47,81.51l61,60.67q15,15,25.63,20.45a54.58,54.58,0,0,0,21.24,6.16v4.52H867.65v-4.52q7.08,0,10.19-2.38c2.08-1.58,3.11-3.35,3.11-5.31a11.44,11.44,0,0,0-1.16-5.24q-1.15-2.33-7.63-8.67L815,90.67V144q0,12.59,1.58,16.61a10.94,10.94,0,0,0,5.13,5.25,22.47,22.47,0,0,0,11.11,2.92h5.61v4.52H767.92v-4.52h5.86q10.25,0,14.89-6,2.93-3.9,2.93-18.8V37.08q0-12.57-1.59-16.72a11.13,11.13,0,0,0-5-5.13,23.21,23.21,0,0,0-11.23-2.93h-5.86V7.78h70.55V12.3h-5.61a23.7,23.7,0,0,0-11.11,2.81A10.59,10.59,0,0,0,816.5,21Q815,24.87,815,37.08V87.74q2.43-2.31,16.72-15.5Q868,39,875.58,27.93q3.3-4.89,3.3-8.55a6.3,6.3,0,0,0-2.57-4.94q-2.55-2.14-8.66-2.14h-3.79V7.78h60.79V12.3a35.89,35.89,0,0,0-9.76,1.47A49.91,49.91,0,0,0,904.15,19q-6.36,3.86-15.63,12.39-2.68,2.44-24.78,25Z"/><path class="cls-6" d="M995.7,84.57h76.9V37.2q0-12.69-1.58-16.72a11,11,0,0,0-5.13-5.25,22.48,22.48,0,0,0-11.11-2.93h-5.86V7.78h70.8V12.3h-5.86a23.27,23.27,0,0,0-11.11,2.81,10.29,10.29,0,0,0-5.31,5.92c-.93,2.64-1.4,8-1.4,16.17V144q0,12.59,1.59,16.61a11,11,0,0,0,5,5.25,23.17,23.17,0,0,0,11.23,2.92h5.86v4.52h-70.8v-4.52h5.86q10.14,0,14.77-6,3-3.9,3-18.8V93.6H995.7V144q0,12.59,1.59,16.61a11,11,0,0,0,5.12,5.25,22.5,22.5,0,0,0,11.11,2.92h6v4.52H948.58v-4.52h5.86q10.26,0,14.89-6,2.94-3.9,2.93-18.8V37.2q0-12.69-1.59-16.72a11,11,0,0,0-5-5.25,23.16,23.16,0,0,0-11.23-2.93h-5.86V7.78h70.92V12.3h-6a23.27,23.27,0,0,0-11.11,2.81A10.61,10.61,0,0,0,997.16,21c-1,2.64-1.46,8-1.46,16.17Z"/><path class="cls-7" d="M1216.28,4q32.22,0,55.85,24.48t23.62,61.09q0,37.73-23.81,62.62t-57.61,24.91q-34.18,0-57.44-24.3t-23.25-62.86q0-39.43,26.85-64.33Q1183.82,4,1216.28,4ZM1214,12.91q-22.21,0-35.64,16.48-16.72,20.51-16.73,60.06,0,40.53,17.34,62.38,13.3,16.6,35.15,16.6,23.33,0,38.52-18.19t15.19-57.37q0-42.48-16.72-63.36Q1237.65,12.92,1214,12.91Z"/><path class="cls-8" d="M1302.1,7.78H1347l101.19,124.15V36.47q0-15.25-3.41-19-4.53-5.13-14.29-5.13h-5.73V7.78h57.61V12.3h-5.86q-10.5,0-14.89,6.35-2.69,3.9-2.68,17.82V176h-4.4L1345.43,42.7V144.63q0,15.26,3.3,19,4.63,5.13,14.28,5.12h5.86v4.52h-57.62v-4.52H1317q10.62,0,15-6.34,2.68-3.91,2.69-17.82V29.51q-7.2-8.42-10.93-11.11a40.5,40.5,0,0,0-10.92-5,39,39,0,0,0-10.74-1.1Z"/><path class="cls-9" d="M1663.06,4V61.25h-4.52q-2.19-16.48-7.87-26.24a41.06,41.06,0,0,0-16.18-15.51,44.79,44.79,0,0,0-21.73-5.73q-12.69,0-21,7.75t-8.3,17.64A20.89,20.89,0,0,0,1588.72,53q7.56,9.15,36,24.41,23.19,12.47,31.67,19.11a46.62,46.62,0,0,1,13.07,15.68,41.38,41.38,0,0,1,4.57,18.93q0,18.79-14.58,32.4t-37.54,13.62a79.7,79.7,0,0,1-13.55-1.1q-3.78-.62-15.69-4.46t-15.07-3.84a6.38,6.38,0,0,0-4.82,1.83q-1.77,1.83-2.63,7.57h-4.51V120.33h4.51q3.18,17.83,8.55,26.68t16.42,14.7a50.84,50.84,0,0,0,24.23,5.86q15.26,0,24.1-8t8.86-19.05a25.79,25.79,0,0,0-3.36-12.32,36.78,36.78,0,0,0-10.44-11.6q-4.76-3.66-26-15.57t-30.21-19a51.13,51.13,0,0,1-13.61-15.62,38.68,38.68,0,0,1-4.64-18.8q0-17.82,13.67-30.7T1612.52,4q13.18,0,28,6.47,6.84,3,9.65,3a7.3,7.3,0,0,0,5.19-1.89q2-1.89,3.23-7.63Z"/><path class="cls-10" d="M1830.78,127.54l4,.85-14.16,44.92H1692.48v-4.52h6.22q10.5,0,15-6.83,2.57-3.9,2.56-18.07V37.08q0-15.49-3.42-19.41-4.75-5.37-14.16-5.37h-6.22V7.78h75V12.3q-13.18-.12-18.5,2.44t-7.26,6.47q-2,3.91-2,18.68v104q0,10.14,2,13.92a8.69,8.69,0,0,0,4.52,3.78q3,1.23,19,1.22h12.09q19,0,26.73-2.8a34.94,34.94,0,0,0,14-9.95Q1824.44,142.92,1830.78,127.54Z"/><path class="cls-11" d="M1931.61,4q32.23,0,55.85,24.48t23.62,61.09q0,37.73-23.8,62.62t-57.62,24.91q-34.19,0-57.44-24.3T1849,89.94q0-39.43,26.86-64.33Q1899.14,4,1931.61,4Zm-2.32,8.91q-22.21,0-35.64,16.48-16.73,20.51-16.73,60.06,0,40.53,17.34,62.38,13.31,16.6,35.16,16.6,23.31,0,38.51-18.19t15.2-57.37q0-42.48-16.73-63.36Q1953,12.92,1929.29,12.91Z"/><path class="cls-12" d="M2165.38,7.78l1.83,38.82h-4.64q-1.35-10.24-3.66-14.65a24.6,24.6,0,0,0-10.07-10.43q-6.3-3.36-16.54-3.36H2109V144.63q0,15.26,3.3,19,4.63,5.13,14.28,5.12h5.74v4.52h-70.19v-4.52H2068q10.5,0,14.9-6.34,2.68-3.91,2.68-17.82V18.16h-19.89q-11.61,0-16.48,1.71a22.64,22.64,0,0,0-10.87,8.91q-4.52,6.59-5.37,17.82h-4.64l2-38.82Z"/><path class="cls-13" d="M142.58,177.31V164.79h9.86c5.71,0,9.5-1.49,11.57-4.58.49-.7,2-3.83,2-15.58V52.36l-57.28,125H99.58l-57.4-125v92.31c0,13.09,1.93,16,2.31,16.41,2.19,2.49,6,3.75,11.27,3.75h9.86v12.52H0V164.79H9.86c5.65,0,9.45-1.51,11.6-4.62.46-.66,2-3.79,2-15.54V36.47c0-8.3-1.1-12.24-2-14.08a9.82,9.82,0,0,0-4.56-4.16C15.17,17.35,11.57,16.3,4,16.3H0V3.78H53.43l57.47,124L167.44,3.78h53.45V16.3h-9.74c-5.73,0-9.57,1.51-11.72,4.63-.46.66-2,3.78-2,15.54V144.63c0,13.06,2,15.91,2.39,16.36,2.24,2.54,6,3.8,11.31,3.8h9.74v12.52Z"/><path class="cls-1" d="M102.14,173.31,38.18,34v110.6q0,15.26,3.3,19,4.52,5.13,14.28,5.12h5.86v4.52H4v-4.52H9.86q10.5,0,14.89-6.34,2.68-3.91,2.69-17.82V36.47q0-11-2.44-15.87a13.58,13.58,0,0,0-6.29-5.92Q14.14,12.3,4,12.3V7.78H50.88L110.93,137.3,170,7.78h46.87V12.3h-5.74q-10.62,0-15,6.35-2.69,3.9-2.69,17.82V144.63q0,15.26,3.42,19,4.51,5.13,14.28,5.12h5.74v4.52H146.58v-4.52h5.86q10.62,0,14.89-6.34,2.68-3.91,2.69-17.82V34L106.17,173.31Z"/><path class="cls-14" d="M311.62,181.1c-23.82,0-44.11-8.59-60.33-25.53s-24.36-39-24.36-65.63c0-27.32,9.47-50,28.13-67.27C271.3,7.63,291,0,313.57,0s42.27,8.65,58.73,25.7S397,64.2,397,89.57c0,26.09-8.38,48.09-24.91,65.39S335.19,181.1,311.62,181.1Zm-.37-164.19c-13.67,0-24.32,4.91-32.54,15-10.5,12.87-15.83,32.23-15.83,57.53,0,26,5.54,46.12,16.47,59.89,8.13,10.15,18.61,15.09,32,15.09,14.43,0,26-5.48,35.45-16.75s14.26-29.77,14.26-54.81c0-27.26-5.33-47.73-15.84-60.86C337,21.86,325.9,16.91,311.25,16.91Z"/><path class="cls-2" d="M313.57,4q32.22,0,55.85,24.48T393,89.57q0,37.73-23.81,62.62T311.62,177.1q-34.19,0-57.44-24.3T230.93,89.94q0-39.43,26.85-64.33Q281.11,4,313.57,4Zm-2.32,8.91q-22.22,0-35.64,16.48Q258.89,49.9,258.88,89.45q0,40.53,17.34,62.38,13.3,16.6,35.15,16.6,23.33,0,38.52-18.19t15.19-57.37q0-42.48-16.72-63.36Q334.94,12.92,311.25,12.91Z"/><path class="cls-15" d="M550,180,446.72,53.9v90.73c0,13.09,1.93,16,2.31,16.41,2.24,2.47,6.05,3.75,11.27,3.75h9.86v12.52H404.54V164.79h9.74c5.73,0,9.57-1.51,11.72-4.62.46-.66,2-3.79,2-15.54V31c-5.08-5.85-7.83-8.32-9.27-9.35a36.43,36.43,0,0,0-9.81-4.44c-1.31-.41-4.06-.91-9.51-.91h-4V3.78h50.82L541.5,120.69V36.47c0-13.06-2-15.92-2.38-16.36-2.24-2.54-6-3.81-11.32-3.81h-9.73V3.78h65.61V16.3h-9.86c-5.65,0-9.44,1.51-11.6,4.63-.46.66-2,3.78-2,15.54V180Z"/><path class="cls-3" d="M399.39,7.78h44.92L545.5,131.93V36.47q0-15.25-3.41-19-4.53-5.13-14.29-5.13h-5.73V7.78h57.61V12.3h-5.86q-10.5,0-14.89,6.35-2.68,3.9-2.68,17.82V176h-4.4L442.72,42.7V144.63q0,15.26,3.3,19,4.64,5.13,14.28,5.12h5.86v4.52H408.54v-4.52h5.74q10.62,0,15-6.34,2.68-3.91,2.69-17.82V29.51q-7.2-8.42-10.93-11.11a40.5,40.5,0,0,0-10.92-5,39,39,0,0,0-10.74-1.1Z"/><path class="cls-16" d="M683.57,181.1c-33.1,0-58.67-10.85-76-32.25A86.45,86.45,0,0,1,588,93.11a93.38,93.38,0,0,1,11-43.73c8.61-16.46,20.62-29.32,35.69-38.21C647.36,3.76,662.5,0,679.66,0a89.34,89.34,0,0,1,17.2,1.54c5.17,1,12.22,3.2,21.54,6.64,5.88,2.21,7.5,2.32,7.77,2.32s.35,0,.8-.58c0-.05.9-1.22,1.19-6.15L728.38,0h12l4.93,60.25h-11.5l-.91-2.75c-4.09-12.34-9.37-21.69-15.7-27.79C708,20.85,696.5,16.54,682,16.54c-19.82,0-34.46,7.6-44.76,23.23-8.71,13.34-13.13,29.52-13.13,48.09,0,15.13,2.95,29.09,8.78,41.52,5.73,12.24,13.29,21.29,22.45,26.91s18.75,8.5,28.37,8.5a63.84,63.84,0,0,0,16.65-2.17,66.82,66.82,0,0,0,13.53-5.35V111.79c0-10.4-1-13.63-1.48-14.53a8.84,8.84,0,0,0-4.09-4.06c-1.16-.59-4.29-1.58-12.16-1.58h-4V79h72.09V91.62h-7.06c-6.42,0-8.54,2.45-9.56,4.29-.71,1.31-1.94,5.18-1.94,15.88v53l-2.1,1.14A128.77,128.77,0,0,1,715,177.43,126,126,0,0,1,683.57,181.1Z"/><path class="cls-4" d="M736.67,4l4.27,52.25h-4.27q-6.48-19.53-16.73-29.42-14.78-14.28-38-14.29-31.62,0-48.1,25Q620.1,58.69,620.09,87.86q0,23.69,9.15,43.22t24,28.62q14.84,9.09,30.46,9.09a67.56,67.56,0,0,0,17.7-2.31,70.94,70.94,0,0,0,16.48-6.84V111.79q0-12.45-1.89-16.3a12.89,12.89,0,0,0-5.86-5.86q-4-2-14-2V83h64.09v4.64h-3.06q-9.51,0-13.06,6.35-2.45,4.52-2.44,17.82v50.66A124.41,124.41,0,0,1,714,173.56a121.25,121.25,0,0,1-30.39,3.54q-48,0-72.88-30.77Q592,123.26,592,93.11a89,89,0,0,1,10.5-41.87Q615,27.43,636.69,14.62,654.89,4,679.66,4a85.26,85.26,0,0,1,16.42,1.46q7.38,1.47,20.93,6.47,6.84,2.57,9.16,2.57a4.89,4.89,0,0,0,4-2.14c1.09-1.42,1.77-4.21,2-8.36Z"/><path class="cls-17" d="M863.65,177.31V164.79h4c5,0,7-1,7.76-1.55,1-.79,1.54-1.5,1.54-2.14a7.7,7.7,0,0,0-.73-3.46c-.15-.28-1.16-2-6.86-7.6L819,100.25V144c0,10.29.81,13.9,1.3,15.14a7.22,7.22,0,0,0,3.37,3.23,18.36,18.36,0,0,0,9.15,2.41h9.61v12.52H763.92V164.79h9.86c5.58,0,9.41-1.45,11.73-4.43.46-.61,2.09-3.76,2.09-16.35V37.08c0-10.14-.81-13.89-1.3-15.24A7.46,7.46,0,0,0,783,18.72a19,19,0,0,0-9.26-2.42h-9.86V3.78h78.55V16.3h-9.61a19.63,19.63,0,0,0-9.26,2.35,6.6,6.6,0,0,0-3.35,3.72c-.46,1.21-1.21,4.72-1.21,14.71V78.55q3.94-3.66,10-9.25c23.83-21.83,38.37-36.51,43.23-43.63,2.14-3.18,2.6-5.18,2.6-6.29,0-.28,0-.93-1.13-1.87-.43-.36-1.9-1.21-6.1-1.21h-7.79V3.78h68.79V16.21l-3.9.09a32.39,32.39,0,0,0-8.69,1.29,46.89,46.89,0,0,0-9.84,4.78,102.07,102.07,0,0,0-15,11.92c-1.21,1.1-6.45,6.29-24.63,24.88L844.15,81.51l58.18,57.84c9.68,9.67,18,16.31,24.63,19.72a50.82,50.82,0,0,0,19.7,5.73l3.72.26v12.25Z"/><path class="cls-5" d="M838.47,81.51l61,60.67q15,15,25.63,20.45a54.58,54.58,0,0,0,21.24,6.16v4.52H867.65v-4.52q7.08,0,10.19-2.38c2.08-1.58,3.11-3.35,3.11-5.31a11.44,11.44,0,0,0-1.16-5.24q-1.15-2.33-7.63-8.67L815,90.67V144q0,12.59,1.58,16.61a10.94,10.94,0,0,0,5.13,5.25,22.47,22.47,0,0,0,11.11,2.92h5.61v4.52H767.92v-4.52h5.86q10.25,0,14.89-6,2.93-3.9,2.93-18.8V37.08q0-12.57-1.59-16.72a11.13,11.13,0,0,0-5-5.13,23.21,23.21,0,0,0-11.23-2.93h-5.86V7.78h70.55V12.3h-5.61a23.7,23.7,0,0,0-11.11,2.81A10.59,10.59,0,0,0,816.5,21Q815,24.87,815,37.08V87.74q2.43-2.31,16.72-15.5Q868,39,875.58,27.93q3.3-4.89,3.3-8.55a6.3,6.3,0,0,0-2.57-4.94q-2.55-2.14-8.66-2.14h-3.79V7.78h60.79V12.3a35.89,35.89,0,0,0-9.76,1.47A49.91,49.91,0,0,0,904.15,19q-6.36,3.86-15.63,12.39-2.68,2.44-24.78,25Z"/><path class="cls-18" d="M1044.92,177.31V164.79h9.86c5.5,0,9.3-1.45,11.61-4.43.53-.67,2.21-3.81,2.21-16.35V97.6H999.7V144c0,10.29.82,13.9,1.31,15.14a7.19,7.19,0,0,0,3.36,3.23,18.39,18.39,0,0,0,9.15,2.41h10v12.52H944.58V164.79h9.86c5.58,0,9.42-1.45,11.73-4.43.46-.61,2.09-3.76,2.09-16.35V37.2c0-10.38-.82-14-1.31-15.26a7.22,7.22,0,0,0-3.24-3.22,19,19,0,0,0-9.27-2.42h-9.86V3.78h78.92V16.3h-10a19,19,0,0,0-9.22,2.34,6.57,6.57,0,0,0-3.38,3.78c-.46,1.23-1.22,4.78-1.22,14.78V80.57h68.9V37.2c0-10.38-.82-14-1.31-15.26a7.23,7.23,0,0,0-3.36-3.22,18.3,18.3,0,0,0-9.15-2.42h-9.86V3.78h78.8V16.3h-9.86a19,19,0,0,0-9.22,2.34l-.1.05a6.28,6.28,0,0,0-3.33,3.67c-.43,1.24-1.17,4.82-1.17,14.84V144c0,10.29.82,13.9,1.31,15.14a7.17,7.17,0,0,0,3.25,3.23,19,19,0,0,0,9.26,2.41h9.86v12.52Z"/><path class="cls-6" d="M995.7,84.57h76.9V37.2q0-12.69-1.58-16.72a11,11,0,0,0-5.13-5.25,22.48,22.48,0,0,0-11.11-2.93h-5.86V7.78h70.8V12.3h-5.86a23.27,23.27,0,0,0-11.11,2.81,10.29,10.29,0,0,0-5.31,5.92c-.93,2.64-1.4,8-1.4,16.17V144q0,12.59,1.59,16.61a11,11,0,0,0,5,5.25,23.17,23.17,0,0,0,11.23,2.92h5.86v4.52h-70.8v-4.52h5.86q10.14,0,14.77-6,3-3.9,3-18.8V93.6H995.7V144q0,12.59,1.59,16.61a11,11,0,0,0,5.12,5.25,22.5,22.5,0,0,0,11.11,2.92h6v4.52H948.58v-4.52h5.86q10.26,0,14.89-6,2.94-3.9,2.93-18.8V37.2q0-12.69-1.59-16.72a11,11,0,0,0-5-5.25,23.16,23.16,0,0,0-11.23-2.93h-5.86V7.78h70.92V12.3h-6a23.27,23.27,0,0,0-11.11,2.81A10.61,10.61,0,0,0,997.16,21c-1,2.64-1.46,8-1.46,16.17Z"/><path class="cls-19" d="M1214.33,181.1c-23.82,0-44.11-8.59-60.33-25.53s-24.36-39-24.36-65.63c0-27.32,9.46-50,28.13-67.27C1174,7.63,1193.69,0,1216.28,0s42.27,8.65,58.72,25.7,24.75,38.5,24.75,63.87c0,26.09-8.38,48.09-24.91,65.39S1237.9,181.1,1214.33,181.1ZM1214,16.91c-13.67,0-24.32,4.91-32.54,15-10.5,12.87-15.83,32.23-15.83,57.53,0,26,5.54,46.12,16.47,59.89,8.13,10.15,18.61,15.09,32,15.09,14.43,0,26-5.48,35.45-16.75s14.26-29.77,14.26-54.81c0-27.26-5.33-47.73-15.84-60.86C1239.73,21.86,1228.61,16.91,1214,16.91Z"/><path class="cls-7" d="M1216.28,4q32.22,0,55.85,24.48t23.62,61.09q0,37.73-23.81,62.62t-57.61,24.91q-34.18,0-57.44-24.3t-23.25-62.86q0-39.43,26.85-64.33Q1183.82,4,1216.28,4ZM1214,12.91q-22.21,0-35.64,16.48-16.72,20.51-16.73,60.06,0,40.53,17.34,62.38,13.3,16.6,35.15,16.6,23.33,0,38.52-18.19t15.19-57.37q0-42.48-16.72-63.36Q1237.65,12.92,1214,12.91Z"/><path class="cls-20" d="M1452.67,180,1349.43,53.9v90.73c0,13.09,1.93,16,2.31,16.41,2.24,2.47,6,3.75,11.27,3.75h9.86v12.52h-65.62V164.79H1317c5.73,0,9.57-1.51,11.72-4.62.46-.66,2-3.79,2-15.54V31c-5.08-5.86-7.84-8.32-9.27-9.35a36.43,36.43,0,0,0-9.81-4.44c-1.31-.41-4.06-.91-9.51-.91h-4V3.78h50.82l95.29,116.91V36.47c0-13.06-2-15.92-2.38-16.36-2.24-2.54-6-3.81-11.32-3.81h-9.73V3.78h65.61V16.3h-9.86c-5.65,0-9.45,1.51-11.6,4.63-.46.66-2,3.78-2,15.54V180Z"/><path class="cls-8" d="M1302.1,7.78H1347l101.19,124.15V36.47q0-15.25-3.41-19-4.53-5.13-14.29-5.13h-5.73V7.78h57.61V12.3h-5.86q-10.5,0-14.89,6.35-2.69,3.9-2.68,17.82V176h-4.4L1345.43,42.7V144.63q0,15.26,3.3,19,4.63,5.13,14.28,5.12h5.86v4.52h-57.62v-4.52H1317q10.62,0,15-6.34,2.68-3.91,2.69-17.82V29.51q-7.2-8.42-10.93-11.11a40.5,40.5,0,0,0-10.92-5,39,39,0,0,0-10.74-1.1Z"/><path class="cls-21" d="M1621.92,181.1a83.5,83.5,0,0,1-14.23-1.16c-2.71-.44-8-1.94-16.24-4.59-10.48-3.39-13.24-3.65-13.84-3.65-1.36,0-1.78.44-1.94.61s-.9,1-1.55,5.37l-.51,3.42h-12V116.33h11.86l.59,3.3c2,11.34,4.72,19.85,8,25.3,3.18,5.25,8.18,9.71,14.87,13.25a47.18,47.18,0,0,0,22.36,5.39c9.09,0,16.3-2.36,21.41-7s7.55-9.88,7.55-16.09a22.05,22.05,0,0,0-2.88-10.43,33.17,33.17,0,0,0-9.34-10.31c-3-2.32-11.61-7.45-25.53-15.26C1596.08,96.36,1586,90,1579.83,85.14a55.35,55.35,0,0,1-14.65-16.85,42.88,42.88,0,0,1-5.12-20.71c0-13,5-24.28,14.93-33.61s22.46-14,37.53-14c9.3,0,19.25,2.29,29.56,6.81,5.64,2.52,7.58,2.71,8,2.71a3.27,3.27,0,0,0,2.45-.81c.11-.1,1.13-1.16,2.06-5.54L1655.3,0h11.76V65.25h-12l-.46-3.47c-1.39-10.41-3.87-18.74-7.37-24.76a37.24,37.24,0,0,0-14.64-14,41,41,0,0,0-19.81-5.24c-7.48,0-13.45,2.18-18.26,6.67s-7,9.23-7,14.72a16.88,16.88,0,0,0,4.3,11.21c4.72,5.71,16.44,13.59,34.85,23.47,15.81,8.49,26.36,14.86,32.25,19.48a50.67,50.67,0,0,1,14.16,17,45.39,45.39,0,0,1,5,20.73c0,13.62-5.33,25.51-15.85,35.33S1638.2,181.1,1621.92,181.1Z"/><path class="cls-9" d="M1663.06,4V61.25h-4.52q-2.19-16.48-7.87-26.24a41.06,41.06,0,0,0-16.18-15.51,44.79,44.79,0,0,0-21.73-5.73q-12.69,0-21,7.75t-8.3,17.64A20.89,20.89,0,0,0,1588.72,53q7.56,9.15,36,24.41,23.19,12.47,31.67,19.11a46.62,46.62,0,0,1,13.07,15.68,41.38,41.38,0,0,1,4.57,18.93q0,18.79-14.58,32.4t-37.54,13.62a79.7,79.7,0,0,1-13.55-1.1q-3.78-.62-15.69-4.46t-15.07-3.84a6.38,6.38,0,0,0-4.82,1.83q-1.77,1.83-2.63,7.57h-4.51V120.33h4.51q3.18,17.83,8.55,26.68t16.42,14.7a50.84,50.84,0,0,0,24.23,5.86q15.26,0,24.1-8t8.86-19.05a25.79,25.79,0,0,0-3.36-12.32,36.78,36.78,0,0,0-10.44-11.6q-4.76-3.66-26-15.57t-30.21-19a51.13,51.13,0,0,1-13.61-15.62,38.68,38.68,0,0,1-4.64-18.8q0-17.82,13.67-30.7T1612.52,4q13.18,0,28,6.47,6.84,3,9.65,3a7.3,7.3,0,0,0,5.19-1.89q2-1.89,3.23-7.63Z"/><path class="cls-22" d="M1688.48,177.31V164.79h10.22c5.62,0,9.44-1.64,11.68-5,.44-.67,1.9-3.83,1.9-15.86V37.08c0-13-1.86-16.12-2.43-16.78-2.38-2.68-6-4-11.15-4h-10.22V3.78h83V16.34l-4,0h-1.13c-9.38,0-13.65,1.11-15.59,2-2.71,1.31-4.53,2.88-5.42,4.66-.46.92-1.53,4.41-1.53,16.89v104c0,7.8.9,10.86,1.47,12a4.78,4.78,0,0,0,2.48,2c.41.15,3.18.93,17.56.93h12.09c12.17,0,20.7-.86,25.36-2.56a31,31,0,0,0,12.42-8.85c3.91-4.4,7.94-11.6,12-21.39l1.28-3.08,11.59,2.46-16.37,51.92Z"/><path class="cls-10" d="M1830.78,127.54l4,.85-14.16,44.92H1692.48v-4.52h6.22q10.5,0,15-6.83,2.57-3.9,2.56-18.07V37.08q0-15.49-3.42-19.41-4.75-5.37-14.16-5.37h-6.22V7.78h75V12.3q-13.18-.12-18.5,2.44t-7.26,6.47q-2,3.91-2,18.68v104q0,10.14,2,13.92a8.69,8.69,0,0,0,4.52,3.78q3,1.23,19,1.22h12.09q19,0,26.73-2.8a34.94,34.94,0,0,0,14-9.95Q1824.44,142.92,1830.78,127.54Z"/><path class="cls-23" d="M1929.66,181.1c-23.81,0-44.11-8.59-60.33-25.53S1845,116.6,1845,89.94c0-27.32,9.47-50,28.14-67.27C1889.34,7.63,1909,0,1931.61,0s42.27,8.65,58.73,25.7,24.74,38.5,24.74,63.87c0,26.09-8.38,48.09-24.91,65.39S1953.23,181.1,1929.66,181.1Zm-.37-164.19c-13.67,0-24.31,4.91-32.54,15-10.5,12.87-15.83,32.23-15.83,57.53,0,26,5.54,46.12,16.47,59.89,8.13,10.15,18.61,15.09,32,15.09,14.43,0,26-5.48,35.44-16.75s14.27-29.77,14.27-54.81c0-27.26-5.34-47.73-15.85-60.86C1955.06,21.86,1943.94,16.91,1929.29,16.91Z"/><path class="cls-11" d="M1931.61,4q32.23,0,55.85,24.48t23.62,61.09q0,37.73-23.8,62.62t-57.62,24.91q-34.19,0-57.44-24.3T1849,89.94q0-39.43,26.86-64.33Q1899.14,4,1931.61,4Zm-2.32,8.91q-22.21,0-35.64,16.48-16.73,20.51-16.73,60.06,0,40.53,17.34,62.38,13.31,16.6,35.16,16.6,23.31,0,38.51-18.19t15.2-57.37q0-42.48-16.73-63.36Q1953,12.92,1929.29,12.91Z"/><path class="cls-24" d="M2058.11,177.31V164.79H2068c5.66,0,9.46-1.51,11.61-4.62.46-.66,2-3.79,2-15.54V22.16h-15.89c-9,0-13.23.81-15.16,1.48a18.61,18.61,0,0,0-8.89,7.4c-2.59,3.79-4.17,9.13-4.68,15.87l-.28,3.69h-12.55l2.35-46.82h142.75l2.21,46.82h-12.34l-.46-3.48c-1-7.88-2.33-11.58-3.23-13.3A20.46,20.46,0,0,0,2147,25c-3.58-1.91-8.52-2.88-14.65-2.88H2113V144.63c0,13.09,1.93,16,2.31,16.41,2.24,2.47,6.05,3.75,11.27,3.75h9.74v12.52Z"/><path class="cls-12" d="M2165.38,7.78l1.83,38.82h-4.64q-1.35-10.24-3.66-14.65a24.6,24.6,0,0,0-10.07-10.43q-6.3-3.36-16.54-3.36H2109V144.63q0,15.26,3.3,19,4.63,5.13,14.28,5.12h5.74v4.52h-70.19v-4.52H2068q10.5,0,14.9-6.34,2.68-3.91,2.68-17.82V18.16h-19.89q-11.61,0-16.48,1.71a22.64,22.64,0,0,0-10.87,8.91q-4.52,6.59-5.37,17.82h-4.64l2-38.82Z"/><path class="cls-25" d="M23.41,302.44c-3.67,0-6.33-.9-8-2.7s-2.5-4.36-2.5-7.7v-43.6h10.8v40.9q0,4.5,4.4,4.5h4.6v8.6Z"/><path class="cls-26" d="M56.81,303.44a40.38,40.38,0,0,1-16.2-3v-8.6a36.17,36.17,0,0,0,6.55,2.1,31.5,31.5,0,0,0,7.05.8q6.8,0,10.8-1.9a11.31,11.31,0,0,0,5.75-6.15,30.16,30.16,0,0,0,1.75-11.25q0-10.4-4.25-14.8t-14.15-4.4a32.36,32.36,0,0,0-7,.75,33,33,0,0,0-6.5,2.15v-8.7a40.72,40.72,0,0,1,7.35-2.2,43.28,43.28,0,0,1,8.55-.8q13.4,0,19.95,7.15T83,275.44q0,13.6-6.25,20.8T56.81,303.44Z"/><path class="cls-27" d="M51.11,240.34q-5.8,0-9.2-3t-3.4-8.5A11.62,11.62,0,0,1,42,220q3.45-3.3,9.85-3.3h24.6l-.5,6.4H52.81a8.14,8.14,0,0,0-5.05,1.3q-1.65,1.31-1.65,4.4c0,3.54,1.9,5.3,5.7,5.3,1.93,0,3.3-.38,4.1-1.15a4,4,0,0,0,1.2-3.05v-2.1h6.7v2.1A3.54,3.54,0,0,0,65,233a5.77,5.77,0,0,0,3.45.85h6.3v6.3h-7a12.87,12.87,0,0,1-4.45-.75A4.84,4.84,0,0,1,60.41,237a6.48,6.48,0,0,1-3.85,2.45A19,19,0,0,1,51.11,240.34Z"/><path class="cls-28" d="M117.81,303.44q-11.61,0-18.15-5.5t-6.55-16.5v-33H104v33.4q0,6.71,3.55,9.8t10.25,3.1q6.8,0,10.35-3.1t3.55-9.8v-33.4h10.8v33q0,11-6.5,16.5T117.81,303.44Z"/><path class="cls-29" d="M164.91,302.44l-12.5-54h10.7l8,38.6,9.8-30.9v-7.7h7.8l10.9,38.6,7.8-38.6H218l-12.4,54h-10l-10-34.4-10.8,34.4Z"/><path class="cls-30" d="M246.21,303.44q-8.7,0-13.55-5.1t-4.85-14.5v-35.4h10.9v34.9q0,6.11,2.7,8.75t8.4,2.65a19.7,19.7,0,0,0,8.4-1.85,20.8,20.8,0,0,0,6.6-4.65v-39.8h10.8v54h-9.9l-.5-5.9a31.19,31.19,0,0,1-8.35,5A27.91,27.91,0,0,1,246.21,303.44Z"/><path class="cls-31" d="M251.91,240.24v-14.6h9v7h25.9l-.5,7.6Z"/><path class="cls-32" d="M306.71,303.44q-8.7,0-13.55-5.1t-4.85-14.5v-35.4h10.9v34.9q0,6.11,2.7,8.75t8.4,2.65a19.7,19.7,0,0,0,8.4-1.85,20.8,20.8,0,0,0,6.6-4.65v-39.8h10.8v54h-9.9l-.5-5.9a31.19,31.19,0,0,1-8.35,5A27.91,27.91,0,0,1,306.71,303.44Z"/><path class="cls-33" d="M348.81,302.44v-54h9.9l.6,5.9a29,29,0,0,1,8.4-5.05,29.38,29.38,0,0,1,10.8-1.85q8.6,0,13.35,5.1t4.75,14.3v35.6h-10.8v-35.1c0-3.93-.94-6.76-2.8-8.5s-4.67-2.6-8.4-2.6a19.4,19.4,0,0,0-8.4,1.85,21.24,21.24,0,0,0-6.5,4.65v39.7Z"/><path class="cls-34" d="M354.91,240.24l.5-7.6h32.2v-8.3h9v15.9Z"/><path class="cls-35" d="M387.61,219.74v-13.9h9v13.9Z"/><path class="cls-36" d="M431.91,303.44a44.19,44.19,0,0,1-12.8-1.7,18.55,18.55,0,0,1-8.85-5.4q-3.25-3.69-3.25-9.8a13.74,13.74,0,0,1,1.9-7.25,12.88,12.88,0,0,1,5.6-5,11.07,11.07,0,0,1-5.15-4.1,12.12,12.12,0,0,1-2.05-7.2q0-7.69,4.75-11.65t12.15-3.95a31.29,31.29,0,0,1,5,.35,23.43,23.43,0,0,1,3.8,1V257a25.9,25.9,0,0,0-6.8-.8,10.42,10.42,0,0,0-6.2,1.6q-2.2,1.61-2.2,5.2c0,2.54.83,4.35,2.5,5.45a12.4,12.4,0,0,0,6.9,1.65h5.7l.5,8.1H427q-9.51,0-9.5,8.3a6.7,6.7,0,0,0,3.4,6.15q3.39,2.06,10.5,2.05,14.1,0,14.1-11.5v-34.8h10.8v33.5q0,10.9-6.1,16.2T431.91,303.44Z"/><path class="cls-37" d="M414.6,240.24l.5-7.6h41.2v7.6Z"/><path class="cls-38" d="M447.3,219.74v-13.9h9v13.9Z"/><path class="cls-39" d="M490.2,303.44a48.32,48.32,0,0,1-5.1-.3,23.37,23.37,0,0,1-4.9-1l-15.2-37h10.6l12.3,30q8.61.41,12.5-4.95t3.9-16.45a34.88,34.88,0,0,0-1.2-10.25,8.73,8.73,0,0,0-4.05-5.3,16.59,16.59,0,0,0-7.85-1.55h-3.8v-8.2h5.2q11.61,0,16.9,6.2t5.3,19q0,10.61-3.2,17.15a21,21,0,0,1-8.75,9.6A25.74,25.74,0,0,1,490.2,303.44Z"/><path class="cls-40" d="M526.3,302.44v-19.5a17,17,0,0,1,1.7-7.75,9.46,9.46,0,0,1,6.2-4.65l-10.8-2.7v-11.2A40.77,40.77,0,0,1,534,250.29a38.26,38.26,0,0,1,15.35-2.85q11.91,0,18.3,4.95t6.4,16.55v33.5H563.1v-33.8q0-6.9-3.25-9.65t-11-2.75a30,30,0,0,0-9.3,1.4,18.48,18.48,0,0,0-6.8,3.7v1.8l11.4,2.9v7.2a9.46,9.46,0,0,0-5.5,3.2c-1.06,1.47-1.6,3.67-1.6,6.6v19.4Z"/><path class="cls-41" d="M600.1,303.44a40.38,40.38,0,0,1-16.2-3v-8.6a36.42,36.42,0,0,0,6.55,2.1,31.64,31.64,0,0,0,7,.8q6.81,0,10.8-1.9a11.24,11.24,0,0,0,5.75-6.15,30,30,0,0,0,1.75-11.25q0-10.4-4.25-14.8t-14.15-4.4a32.42,32.42,0,0,0-7,.75,33.48,33.48,0,0,0-6.5,2.15v-8.7a41.21,41.21,0,0,1,7.35-2.2,43.43,43.43,0,0,1,8.55-.8q13.41,0,20,7.15t6.55,20.85q0,13.6-6.25,20.8T600.1,303.44Z"/><path class="cls-42" d="M612.8,240.14v-16.4h10.9v16.4Z"/><path class="cls-43" d="M656.8,302.44v-34a21.83,21.83,0,0,0-.9-6.8,6.93,6.93,0,0,0-3.4-4.05c-1.67-.9-4.13-1.35-7.4-1.35a38.67,38.67,0,0,0-7,.7,36.19,36.19,0,0,0-6.75,1.9v-8.4a37,37,0,0,1,7.25-2.15,44,44,0,0,1,8.55-.85q10.8,0,15.65,4.7T667.7,267v35.4Z"/><path class="cls-44" d="M680.4,302.44v-34.2q0-9.8,5.9-15.3t18.6-5.5q12.79,0,18.55,5.5t5.75,15.3v34.2H718.3v-35.2q0-5.7-3.5-8.35t-9.9-2.65q-6.71,0-10.15,2.65t-3.45,8.35v11.1a16,16,0,0,1,10.5-3.6h6.5l.4,8.7h-7.2a15.47,15.47,0,0,0-10.2,3.4v15.6Z"/><path class="cls-45" d="M719.9,327.64v-12.4h-6.3l.5-7.1h15.1v19.5Z"/><path class="cls-46" d="M706.3,240.24V231h-7.9v-7.5h15.4v9.1h21.6l-.4,7.6Z"/><path class="cls-47" d="M771.3,303.44a27.41,27.41,0,0,1-10.65-1.9,31.74,31.74,0,0,1-8.25-5l-.6,5.9h-9.9v-54h10.9v39.8a20.91,20.91,0,0,0,6.5,4.65,19.25,19.25,0,0,0,8.4,1.85q5.59,0,8.4-2.65t2.8-8.75v-34.9h10.8v35.4q0,9.41-4.9,14.5T771.3,303.44Z"/><path class="cls-48" d="M836.9,309.64a34.17,34.17,0,0,1-7.9-10.5,50,50,0,0,1-4.3-13.1,74.69,74.69,0,0,1,0-27.75,51,51,0,0,1,4.3-13.1,34.14,34.14,0,0,1,7.9-10.55h12.3a39.3,39.3,0,0,0-11.35,16.45,65.94,65.94,0,0,0,0,42.1,39.24,39.24,0,0,0,11.35,16.45Z"/><path class="cls-49" d="M874.6,303.44a25.23,25.23,0,0,1-9.3-1.65,13.9,13.9,0,0,1-6.65-5.3q-2.46-3.64-2.45-9.55,0-7.89,5.3-12.3t15.7-4.4h16.5v-3.4q0-5.89-3-8.25t-11-2.35a66.47,66.47,0,0,0-9,.6,47.53,47.53,0,0,0-8.6,2v-8.4a60.29,60.29,0,0,1,9.1-2.15,65,65,0,0,1,10.4-.85,48.78,48.78,0,0,1,4.95.25,33.3,33.3,0,0,1,4.35.75H909l-.6,8.5h-6.3a13.91,13.91,0,0,1,1.9,4.95,33.68,33.68,0,0,1,.5,5.95v34.6H893.7v-23.8H877.8q-5.5,0-8.35,1.85t-2.85,6.45q0,4.41,2.55,6.1c1.7,1.14,4.48,1.7,8.35,1.7a32.39,32.39,0,0,0,3.65-.2,16.67,16.67,0,0,0,3.15-.6v8.3a34,34,0,0,1-4.3.85A39.62,39.62,0,0,1,874.6,303.44Z"/><path class="cls-50" d="M900.6,242.64a11.25,11.25,0,0,1-8-3.1,10.12,10.12,0,0,1-3.3-7.7,10.26,10.26,0,0,1,3.3-7.8,11.29,11.29,0,0,1,8-3.1,11.12,11.12,0,0,1,7.95,3.1,10.36,10.36,0,0,1,3.25,7.8,10.22,10.22,0,0,1-3.25,7.7A11.08,11.08,0,0,1,900.6,242.64Zm0-6.2a4.32,4.32,0,0,0,3.25-1.4,4.48,4.48,0,0,0,1.35-3.2,4.73,4.73,0,0,0-1.35-3.4,4.36,4.36,0,0,0-3.25-1.4,4.69,4.69,0,0,0-3.35,1.4,4.55,4.55,0,0,0-1.45,3.4,4.32,4.32,0,0,0,1.45,3.2A4.65,4.65,0,0,0,900.6,236.44Zm38.6,66v-34a21.83,21.83,0,0,0-.9-6.8,7,7,0,0,0-3.4-4.05q-2.5-1.35-7.4-1.35a38.58,38.58,0,0,0-7,.7,36.19,36.19,0,0,0-6.75,1.9v-8.4a36.79,36.79,0,0,1,7.25-2.15,44,44,0,0,1,8.55-.85q10.8,0,15.65,4.7T950.1,267v35.4Z"/><path class="cls-51" d="M962.8,302.44v-54h10.9v17h15.6q5.9,0,8.15-2.55t2.25-7.45v-7h10.8v6.7a20.91,20.91,0,0,1-1.75,8.8,10.63,10.63,0,0,1-6.35,5.5c3.06,1.07,5.1,2.75,6.1,5.05a20.07,20.07,0,0,1,1.5,8.05v19.9H999.2v-18.6c0-3.86-.74-6.51-2.2-7.95s-4.17-2.15-8.1-2.15H973.7v28.7Z"/><path class="cls-52" d="M1040.9,303.44a72.58,72.58,0,0,1-10.25-.7,34.5,34.5,0,0,1-8.15-2v-9.1a42.91,42.91,0,0,0,8.25,2.3,45.64,45.64,0,0,0,8.15.8c4.6,0,8-.41,10.2-1.25s3.3-2.58,3.3-5.25a5.57,5.57,0,0,0-1.7-4.4,15.21,15.21,0,0,0-5-2.65c-2.2-.76-4.94-1.68-8.2-2.75a62.8,62.8,0,0,1-8.3-3.5,16.3,16.3,0,0,1-5.85-4.8,11.86,11.86,0,0,1-2.15-7.3,13.45,13.45,0,0,1,5.4-11.25q5.4-4.14,16.3-4.15a60,60,0,0,1,9.1.7,45.13,45.13,0,0,1,7.4,1.7v9a36.13,36.13,0,0,0-7.35-1.95,48.25,48.25,0,0,0-7.55-.65,28.39,28.39,0,0,0-9.3,1.25,4.9,4.9,0,0,0-3.5,5.05,4.79,4.79,0,0,0,1.8,3.95,16.83,16.83,0,0,0,5.15,2.6q3.35,1.16,8,2.75a48.32,48.32,0,0,1,8.9,3.75,15.16,15.16,0,0,1,5.45,5,14.25,14.25,0,0,1,1.85,7.65q0,7.9-6,11.55T1040.9,303.44Z"/><path class="cls-53" d="M1037.2,240.24v-14.6h9v7h25.89l-.5,7.6Z"/><path class="cls-54" d="M1098.29,303.44q-11.6,0-18.15-5.5t-6.55-16.5v-33h10.91v33.4q0,6.71,3.54,9.8t10.25,3.1q6.81,0,10.35-3.1t3.56-9.8v-33.4H1123v33q0,11-6.5,16.5T1098.29,303.44Z"/><path class="cls-55" d="M1135.69,302.44v-43.9a10.75,10.75,0,0,1,2.45-7.25,8.81,8.81,0,0,1,7-2.85h10.3l.5,8.4h-5.2a4.67,4.67,0,0,0-3.55,1.15,5.49,5.49,0,0,0-1,3.75v26.1l13.2-22.9h4.4l13.2,22.9v-39.4h10.4v54h-10.7l-15.1-26.7-15.2,26.7Z"/><path class="cls-56" d="M1175.29,328.54c-3.66,0-6.55-.82-8.65-2.45a7.4,7.4,0,0,1-3.15-6v-5.1h-5.4l.4-6.8h12.8v10.1c0,2.2,1.34,3.3,4,3.3s4.1-1.1,4.1-3.3v-10.1h7.9v10.8a9,9,0,0,1-3,6.75Q1181.29,328.54,1175.29,328.54Z"/><path class="cls-57" d="M1164.49,240.24V231h-7.9v-7.5H1172v9.1h21.6l-.4,7.6Z"/><path class="cls-58" d="M1209.79,302.44l-12.5-54H1208l8,38.6,9.8-30.9v-7.7h7.8l10.9,38.6,7.8-38.6h10.6l-12.4,54h-10l-10-34.4-10.8,34.4Z"/><path class="cls-59" d="M1236.29,240.24v-14.6h9v7h25.9l-.5,7.6Z"/><path class="cls-60" d="M1292.79,303.44a22.71,22.71,0,0,1-11.3-2.8,19.28,19.28,0,0,1-7.9-8.85q-2.89-6-2.9-15.55,0-14,4.55-21.4t12.55-7.4a12.57,12.57,0,0,1,6.5,1.45,15.57,15.57,0,0,1,4.2,3.75,16.05,16.05,0,0,1,5.35-3.75,16.52,16.52,0,0,1,6.75-1.45q6.51,0,9.45,3.85t3,10.65v26.3a21.56,21.56,0,0,0,6.35,4.65,17.88,17.88,0,0,0,8.05,1.85q5.5,0,8-2.65t2.55-8.75v-34.9h10.9v35.4q0,9.41-4.65,14.5t-13.25,5.1a25.67,25.67,0,0,1-10.35-1.9,32.89,32.89,0,0,1-8.05-5l-.5,5.9h-9.6v-38.9a12.81,12.81,0,0,0-.9-5.55c-.6-1.16-2-1.75-4.1-1.75a6.47,6.47,0,0,0-3.65,1.1,6.54,6.54,0,0,0-2.45,3.5h-6a11.5,11.5,0,0,0-2.45-3.5,5.38,5.38,0,0,0-3.65-1.1c-3.26,0-5.43,1.84-6.5,5.5a53.74,53.74,0,0,0-1.6,14.5q0,10.31,3.5,14.4t10,4.1a33.15,33.15,0,0,0,3.75-.2,16.36,16.36,0,0,0,3.15-.6v8.3a19.81,19.81,0,0,1-3.8.9A35.87,35.87,0,0,1,1292.79,303.44Z"/><path class="cls-61" d="M1390,303.44q-8.7,0-13.55-5.1t-4.85-14.5v-35.4h10.9v34.9q0,6.11,2.7,8.75t8.4,2.65a19.64,19.64,0,0,0,8.4-1.85,20.58,20.58,0,0,0,6.6-4.65v-39.8h10.8v54h-9.9l-.5-5.9a31,31,0,0,1-8.35,5A27.91,27.91,0,0,1,1390,303.44Z"/><path class="cls-62" d="M1452.49,302.44v-34a21.83,21.83,0,0,0-.9-6.8,6.93,6.93,0,0,0-3.4-4.05q-2.49-1.35-7.4-1.35a38.67,38.67,0,0,0-7,.7,36.19,36.19,0,0,0-6.75,1.9v-8.4a37,37,0,0,1,7.25-2.15,44.11,44.11,0,0,1,8.55-.85q10.8,0,15.65,4.7t4.85,14.9v35.4Z"/><path class="cls-63" d="M1472.09,309.64a38.55,38.55,0,0,0,11.4-16.45,66.86,66.86,0,0,0,0-42.1,38.61,38.61,0,0,0-11.4-16.45h12.4a33.39,33.39,0,0,1,7.85,10.55,52.48,52.48,0,0,1,4.25,13.1,74.69,74.69,0,0,1,0,27.75,51.43,51.43,0,0,1-4.25,13.1,33.4,33.4,0,0,1-7.85,10.5Z"/><path class="cls-64" d="M23.41,304.44c-4.23,0-7.42-1.12-9.47-3.34s-3-5.22-3-9.06v-45.6h14.8v42.9c0,1.89.58,2.5,2.4,2.5h6.6v12.6Z"/><path class="cls-25" d="M23.41,302.44c-3.67,0-6.33-.9-8-2.7s-2.5-4.36-2.5-7.7v-43.6h10.8v40.9q0,4.5,4.4,4.5h4.6v8.6Z"/><path class="cls-65" d="M56.81,305.44a42.55,42.55,0,0,1-17-3.16l-1.2-.53v-13L41.4,290a35.19,35.19,0,0,0,6.2,2,30,30,0,0,0,6.61.75c4.21,0,7.56-.57,9.94-1.7a9.33,9.33,0,0,0,4.76-5.11,28.33,28.33,0,0,0,1.6-10.49c0-6.36-1.24-10.87-3.69-13.41s-6.71-3.79-12.71-3.79a30.9,30.9,0,0,0-6.57.7,31.5,31.5,0,0,0-6.11,2l-2.82,1.28V249.1l1.24-.51a43.1,43.1,0,0,1,7.71-2.31,45.2,45.2,0,0,1,8.95-.84c9.47,0,16.68,2.63,21.42,7.8S85,265.84,85,275.44s-2.27,17-6.74,22.11S66.5,305.44,56.81,305.44Z"/><path class="cls-26" d="M56.81,303.44a40.38,40.38,0,0,1-16.2-3v-8.6a36.17,36.17,0,0,0,6.55,2.1,31.5,31.5,0,0,0,7.05.8q6.8,0,10.8-1.9a11.31,11.31,0,0,0,5.75-6.15,30.16,30.16,0,0,0,1.75-11.25q0-10.4-4.25-14.8t-14.15-4.4a32.36,32.36,0,0,0-7,.75,33,33,0,0,0-6.5,2.15v-8.7a40.72,40.72,0,0,1,7.35-2.2,43.28,43.28,0,0,1,8.55-.8q13.4,0,19.95,7.15T83,275.44q0,13.6-6.25,20.8T56.81,303.44Z"/><path class="cls-66" d="M51.11,242.34c-4.35,0-7.89-1.18-10.53-3.5s-4.07-5.75-4.07-10a13.58,13.58,0,0,1,4.07-10.24c2.67-2.56,6.45-3.86,11.23-3.86H78.57l-.81,10.4h-25A6.41,6.41,0,0,0,49,226a3.53,3.53,0,0,0-.89,2.83c0,2,.62,3.3,3.7,3.3,1.89,0,2.53-.41,2.71-.59a2,2,0,0,0,.59-1.61v-4.1h10.7v4.1c0,.88.18,1.33.34,1.44a3.87,3.87,0,0,0,2.26.46h8.3v10.3h-9a14.87,14.87,0,0,1-5.14-.87A7.92,7.92,0,0,1,60.26,240a11.34,11.34,0,0,1-3.13,1.43A21.06,21.06,0,0,1,51.11,242.34Z"/><path class="cls-27" d="M51.11,240.34q-5.8,0-9.2-3t-3.4-8.5A11.62,11.62,0,0,1,42,220q3.45-3.3,9.85-3.3h24.6l-.5,6.4H52.81a8.14,8.14,0,0,0-5.05,1.3q-1.65,1.31-1.65,4.4c0,3.54,1.9,5.3,5.7,5.3,1.93,0,3.3-.38,4.1-1.15a4,4,0,0,0,1.2-3.05v-2.1h6.7v2.1A3.54,3.54,0,0,0,65,233a5.77,5.77,0,0,0,3.45.85h6.3v6.3h-7a12.87,12.87,0,0,1-4.45-.75A4.84,4.84,0,0,1,60.41,237a6.48,6.48,0,0,1-3.85,2.45A19,19,0,0,1,51.11,240.34Z"/><path class="cls-67" d="M117.81,305.44c-8.18,0-14.72-2-19.44-6s-7.26-10.11-7.26-18v-35H106v35.4c0,3.85,1,6.64,2.86,8.3s5,2.6,8.94,2.6,7-.88,9-2.6,2.87-4.45,2.87-8.3v-35.4h14.8v35c0,7.92-2.43,14-7.21,18S126.06,305.44,117.81,305.44Z"/><path class="cls-28" d="M117.81,303.44q-11.61,0-18.15-5.5t-6.55-16.5v-33H104v33.4q0,6.71,3.55,9.8t10.25,3.1q6.8,0,10.35-3.1t3.55-9.8v-33.4h10.8v33q0,11-6.5,16.5T117.81,303.44Z"/><polygon class="cls-68" points="194.11 304.44 185.53 274.95 176.28 304.44 163.32 304.44 149.89 246.44 164.74 246.44 171.51 279.15 178.91 255.83 178.91 246.44 190.22 246.44 199.28 278.54 205.77 246.44 220.52 246.44 207.2 304.44 194.11 304.44"/><path class="cls-29" d="M164.91,302.44l-12.5-54h10.7l8,38.6,9.8-30.9v-7.7h7.8l10.9,38.6,7.8-38.6H218l-12.4,54h-10l-10-34.4-10.8,34.4Z"/><path class="cls-69" d="M246.21,305.44c-6.35,0-11.39-1.92-15-5.72s-5.4-9.11-5.4-15.88v-37.4h14.9v36.9c0,3.49.7,6,2.1,7.32s3.76,2.08,7,2.08a18,18,0,0,0,7.56-1.66,19.7,19.7,0,0,0,5.44-3.65v-41h14.8v58H263.87l-.35-4.15a33.85,33.85,0,0,1-5.91,3.1A30.05,30.05,0,0,1,246.21,305.44Z"/><path class="cls-30" d="M246.21,303.44q-8.7,0-13.55-5.1t-4.85-14.5v-35.4h10.9v34.9q0,6.11,2.7,8.75t8.4,2.65a19.7,19.7,0,0,0,8.4-1.85,20.8,20.8,0,0,0,6.6-4.65v-39.8h10.8v54h-9.9l-.5-5.9a31.19,31.19,0,0,1-8.35,5A27.91,27.91,0,0,1,246.21,303.44Z"/><polygon class="cls-70" points="249.91 242.24 249.91 223.64 262.91 223.64 262.91 230.64 288.94 230.64 288.18 242.24 249.91 242.24"/><path class="cls-31" d="M251.91,240.24v-14.6h9v7h25.9l-.5,7.6Z"/><path class="cls-71" d="M306.71,305.44c-6.35,0-11.39-1.92-15-5.72s-5.4-9.11-5.4-15.88v-37.4h14.9v36.9c0,3.49.7,6,2.1,7.32s3.76,2.08,7,2.08a18,18,0,0,0,7.56-1.66,19.7,19.7,0,0,0,5.44-3.65v-41h14.8v58H324.37l-.35-4.15a33.85,33.85,0,0,1-5.91,3.1A30.05,30.05,0,0,1,306.71,305.44Z"/><path class="cls-32" d="M306.71,303.44q-8.7,0-13.55-5.1t-4.85-14.5v-35.4h10.9v34.9q0,6.11,2.7,8.75t8.4,2.65a19.7,19.7,0,0,0,8.4-1.85,20.8,20.8,0,0,0,6.6-4.65v-39.8h10.8v54h-9.9l-.5-5.9a31.19,31.19,0,0,1-8.35,5A27.91,27.91,0,0,1,306.71,303.44Z"/><path class="cls-72" d="M383.81,304.44v-37.1c0-3.33-.73-5.7-2.17-7s-3.84-2.07-7-2.07a17.48,17.48,0,0,0-7.55,1.66,19.57,19.57,0,0,0-5.35,3.65v40.89h-14.9v-58h13.7l.42,4.15a29.91,29.91,0,0,1,17.58-5.15c6.28,0,11.26,1.93,14.81,5.74s5.29,9,5.29,15.66v37.6Z"/><path class="cls-33" d="M348.81,302.44v-54h9.9l.6,5.9a29,29,0,0,1,8.4-5.05,29.38,29.38,0,0,1,10.8-1.85q8.6,0,13.35,5.1t4.75,14.3v35.6h-10.8v-35.1c0-3.93-.94-6.76-2.8-8.5s-4.67-2.6-8.4-2.6a19.4,19.4,0,0,0-8.4,1.85,21.24,21.24,0,0,0-6.5,4.65v39.7Z"/><polygon class="cls-73" points="352.77 242.24 353.53 230.64 385.61 230.64 385.61 222.34 398.61 222.34 398.61 242.24 352.77 242.24"/><path class="cls-34" d="M354.91,240.24l.5-7.6h32.2v-8.3h9v15.9Z"/><rect class="cls-74" x="385.61" y="203.84" width="13" height="17.9"/><path class="cls-35" d="M387.61,219.74v-13.9h9v13.9Z"/><path class="cls-75" d="M431.91,305.44a46.53,46.53,0,0,1-13.39-1.78,20.78,20.78,0,0,1-9.77-6c-2.48-2.83-3.74-6.57-3.74-11.12a15.77,15.77,0,0,1,2.18-8.28,14.32,14.32,0,0,1,3.41-3.84,14.05,14.05,0,0,1-2.88-3,14.2,14.2,0,0,1-2.41-8.36c0-5.73,1.84-10.17,5.47-13.19s8-4.41,13.43-4.41a32.91,32.91,0,0,1,5.32.38,23.83,23.83,0,0,1,4.14,1l1.34.47v12.34l-2.54-.7a24,24,0,0,0-6.26-.73,8.56,8.56,0,0,0-5,1.22c-.34.25-1.37,1-1.37,3.58s.91,3.33,1.6,3.78a10.53,10.53,0,0,0,5.8,1.32h7.58l.74,12.1H427c-6.61,0-7.5,3.19-7.5,6.3a4.74,4.74,0,0,0,2.43,4.44c1.94,1.17,5.12,1.76,9.47,1.76,10.84,0,12.1-5.42,12.1-9.5v-36.8h14.8v35.5c0,7.84-2.29,13.8-6.79,17.71S440.5,305.44,431.91,305.44Z"/><path class="cls-36" d="M431.91,303.44a44.19,44.19,0,0,1-12.8-1.7,18.55,18.55,0,0,1-8.85-5.4q-3.25-3.69-3.25-9.8a13.74,13.74,0,0,1,1.9-7.25,12.88,12.88,0,0,1,5.6-5,11.07,11.07,0,0,1-5.15-4.1,12.12,12.12,0,0,1-2.05-7.2q0-7.69,4.75-11.65t12.15-3.95a31.29,31.29,0,0,1,5,.35,23.43,23.43,0,0,1,3.8,1V257a25.9,25.9,0,0,0-6.8-.8,10.42,10.42,0,0,0-6.2,1.6q-2.2,1.61-2.2,5.2c0,2.54.83,4.35,2.5,5.45a12.4,12.4,0,0,0,6.9,1.65h5.7l.5,8.1H427q-9.51,0-9.5,8.3a6.7,6.7,0,0,0,3.4,6.15q3.39,2.06,10.5,2.05,14.1,0,14.1-11.5v-34.8h10.8v33.5q0,10.9-6.1,16.2T431.91,303.44Z"/><polygon class="cls-76" points="412.47 242.24 413.23 230.64 458.3 230.64 458.3 242.24 412.47 242.24"/><path class="cls-37" d="M414.6,240.24l.5-7.6h41.2v7.6Z"/><rect class="cls-77" x="445.3" y="203.84" width="13" height="17.9"/><path class="cls-38" d="M447.3,219.74v-13.9h9v13.9Z"/><path class="cls-78" d="M490.2,305.44a49.59,49.59,0,0,1-5.31-.31,25.59,25.59,0,0,1-5.32-1.09l-.87-.29L462,263.14H477l12.31,30c4.4,0,7.52-1.4,9.53-4.16,2.33-3.2,3.51-8.33,3.51-15.27a33.31,33.31,0,0,0-1.1-9.64,6.72,6.72,0,0,0-3.1-4.15,14.76,14.76,0,0,0-6.9-1.31h-5.8v-12.2h7.2c8.31,0,14.51,2.32,18.42,6.9s5.78,11.32,5.78,20.3c0,7.34-1.14,13.41-3.4,18a23.15,23.15,0,0,1-9.58,10.48A28,28,0,0,1,490.2,305.44Z"/><path class="cls-39" d="M490.2,303.44a48.32,48.32,0,0,1-5.1-.3,23.37,23.37,0,0,1-4.9-1l-15.2-37h10.6l12.3,30q8.61.41,12.5-4.95t3.9-16.45a34.88,34.88,0,0,0-1.2-10.25,8.73,8.73,0,0,0-4.05-5.3,16.59,16.59,0,0,0-7.85-1.55h-3.8v-8.2h5.2q11.61,0,16.9,6.2t5.3,19q0,10.61-3.2,17.15a21,21,0,0,1-8.75,9.6A25.74,25.74,0,0,1,490.2,303.44Z"/><path class="cls-79" d="M561.1,304.44v-35.8c0-4-.85-6.69-2.54-8.12s-5-2.28-9.66-2.28a28.19,28.19,0,0,0-8.68,1.3,19.27,19.27,0,0,0-4.73,2.22l10.71,2.73v10.3l-1.5.39a7.56,7.56,0,0,0-4.38,2.44c-.81,1.11-1.22,2.93-1.22,5.42v21.4H524.3v-21.5a18.93,18.93,0,0,1,1.92-8.65,10.17,10.17,0,0,1,2.41-3.08l-7.23-1.81V255.73l.69-.59a42.46,42.46,0,0,1,11.07-6.68,40.34,40.34,0,0,1,16.14-3c8.35,0,14.92,1.81,19.53,5.37s7.17,9.78,7.17,18.13v35.5Z"/><path class="cls-40" d="M526.3,302.44v-19.5a17,17,0,0,1,1.7-7.75,9.46,9.46,0,0,1,6.2-4.65l-10.8-2.7v-11.2A40.77,40.77,0,0,1,534,250.29a38.26,38.26,0,0,1,15.35-2.85q11.91,0,18.3,4.95t6.4,16.55v33.5H563.1v-33.8q0-6.9-3.25-9.65t-11-2.75a30,30,0,0,0-9.3,1.4,18.48,18.48,0,0,0-6.8,3.7v1.8l11.4,2.9v7.2a9.46,9.46,0,0,0-5.5,3.2c-1.06,1.47-1.6,3.67-1.6,6.6v19.4Z"/><path class="cls-80" d="M600.1,305.44a42.53,42.53,0,0,1-17-3.16l-1.21-.53v-13l2.8,1.22a35.08,35.08,0,0,0,6.19,2,30,30,0,0,0,6.61.75c4.22,0,7.56-.57,9.94-1.7a9.3,9.3,0,0,0,4.76-5.11,28.33,28.33,0,0,0,1.6-10.49c0-6.36-1.24-10.87-3.69-13.41s-6.7-3.79-12.71-3.79a31,31,0,0,0-6.57.7,31.4,31.4,0,0,0-6.1,2l-2.83,1.28V249.1l1.24-.51a43.35,43.35,0,0,1,7.71-2.31,45.2,45.2,0,0,1,8.95-.84c9.48,0,16.69,2.63,21.43,7.8s7.07,12.6,7.07,22.2-2.26,17-6.74,22.11S609.8,305.44,600.1,305.44Z"/><path class="cls-41" d="M600.1,303.44a40.38,40.38,0,0,1-16.2-3v-8.6a36.42,36.42,0,0,0,6.55,2.1,31.64,31.64,0,0,0,7,.8q6.81,0,10.8-1.9a11.24,11.24,0,0,0,5.75-6.15,30,30,0,0,0,1.75-11.25q0-10.4-4.25-14.8t-14.15-4.4a32.42,32.42,0,0,0-7,.75,33.48,33.48,0,0,0-6.5,2.15v-8.7a41.21,41.21,0,0,1,7.35-2.2,43.43,43.43,0,0,1,8.55-.8q13.41,0,20,7.15t6.55,20.85q0,13.6-6.25,20.8T600.1,303.44Z"/><rect class="cls-81" x="610.8" y="221.74" width="14.9" height="20.4"/><path class="cls-42" d="M612.8,240.14v-16.4h10.9v16.4Z"/><path class="cls-82" d="M654.8,304.44v-36a20,20,0,0,0-.8-6.17,4.93,4.93,0,0,0-2.45-2.92,14.32,14.32,0,0,0-6.45-1.11,36.51,36.51,0,0,0-6.58.67,34,34,0,0,0-6.38,1.79l-2.74,1.1V249.13l1.21-.52a38.33,38.33,0,0,1,7.65-2.28,45.71,45.71,0,0,1,8.94-.89c7.7,0,13.44,1.77,17,5.27s5.46,9,5.46,16.33v37.4Z"/><path class="cls-43" d="M656.8,302.44v-34a21.83,21.83,0,0,0-.9-6.8,6.93,6.93,0,0,0-3.4-4.05c-1.67-.9-4.13-1.35-7.4-1.35a38.67,38.67,0,0,0-7,.7,36.19,36.19,0,0,0-6.75,1.9v-8.4a37,37,0,0,1,7.25-2.15,44,44,0,0,1,8.55-.85q10.8,0,15.65,4.7T667.7,267v35.4Z"/><path class="cls-83" d="M716.3,304.44v-37.2c0-3.16-.88-5.37-2.71-6.75s-4.89-2.25-8.69-2.25c-4,0-7,.75-8.93,2.24s-2.67,3.59-2.67,6.76v7.43a18.67,18.67,0,0,1,8.5-1.93h8.41l.58,12.7H701.5a13.68,13.68,0,0,0-8.2,2.38v16.62H678.4v-36.2c0-7.08,2.2-12.72,6.54-16.76s11-6,20-6,15.73,2,19.93,6.06,6.37,9.67,6.37,16.74v36.2Z"/><path class="cls-44" d="M680.4,302.44v-34.2q0-9.8,5.9-15.3t18.6-5.5q12.79,0,18.55,5.5t5.75,15.3v34.2H718.3v-35.2q0-5.7-3.5-8.35t-9.9-2.65q-6.71,0-10.15,2.65t-3.45,8.35v11.1a16,16,0,0,1,10.5-3.6h6.5l.4,8.7h-7.2a15.47,15.47,0,0,0-10.2,3.4v15.6Z"/><polygon class="cls-84" points="717.9 329.64 717.9 317.24 711.45 317.24 712.24 306.14 731.2 306.14 731.2 329.64 717.9 329.64"/><path class="cls-45" d="M719.9,327.64v-12.4h-6.3l.5-7.1h15.1v19.5Z"/><polygon class="cls-85" points="704.3 242.24 704.3 233.04 696.4 233.04 696.4 221.54 715.8 221.54 715.8 230.64 737.51 230.64 736.9 242.24 704.3 242.24"/><path class="cls-46" d="M706.3,240.24V231h-7.9v-7.5h15.4v9.1h21.6l-.4,7.6Z"/><path class="cls-86" d="M771.3,305.44a29.69,29.69,0,0,1-11.42-2.05,34.53,34.53,0,0,1-5.85-3.13l-.42,4.18H739.9v-58h14.9v41a19.48,19.48,0,0,0,5.36,3.65,17.4,17.4,0,0,0,7.54,1.66c3.19,0,5.55-.71,7-2.1s2.17-3.82,2.17-7.3v-36.9h14.8v37.4c0,6.77-1.84,12.12-5.46,15.89S777.57,305.44,771.3,305.44Z"/><path class="cls-47" d="M771.3,303.44a27.41,27.41,0,0,1-10.65-1.9,31.74,31.74,0,0,1-8.25-5l-.6,5.9h-9.9v-54h10.9v39.8a20.91,20.91,0,0,0,6.5,4.65,19.25,19.25,0,0,0,8.4,1.85q5.59,0,8.4-2.65t2.8-8.75v-34.9h10.8v35.4q0,9.41-4.9,14.5T771.3,303.44Z"/><path class="cls-87" d="M836.13,311.64l-.57-.51A36.57,36.57,0,0,1,827.2,300a52.78,52.78,0,0,1-4.47-13.61,77,77,0,0,1,0-28.49,53.8,53.8,0,0,1,4.47-13.61,36.54,36.54,0,0,1,8.36-11.16l.57-.51h18.4l-4,3.51a37.49,37.49,0,0,0-10.78,15.62,64,64,0,0,0,0,40.74,37.52,37.52,0,0,0,10.78,15.63l4,3.5Z"/><path class="cls-48" d="M836.9,309.64a34.17,34.17,0,0,1-7.9-10.5,50,50,0,0,1-4.3-13.1,74.69,74.69,0,0,1,0-27.75,51,51,0,0,1,4.3-13.1,34.14,34.14,0,0,1,7.9-10.55h12.3a39.3,39.3,0,0,0-11.35,16.45,65.94,65.94,0,0,0,0,42.1,39.24,39.24,0,0,0,11.35,16.45Z"/><path class="cls-88" d="M874.6,305.44a27.24,27.24,0,0,1-10-1.79,15.9,15.9,0,0,1-7.58-6,18.88,18.88,0,0,1-2.79-10.67c0-5.86,2-10.52,6-13.84s9.6-4.86,17-4.86h14.5v-1.4c0-3.27-.75-5.51-2.24-6.67-1.12-.88-3.72-1.93-9.76-1.93a65.87,65.87,0,0,0-8.73.58,45.64,45.64,0,0,0-8.24,1.92l-2.63.88V249l1.37-.46a62.29,62.29,0,0,1,9.41-2.22,66.82,66.82,0,0,1,10.72-.88,50.33,50.33,0,0,1,5.16.26,36,36,0,0,1,4.38.74h20l-.89,12.5h-5a18.25,18.25,0,0,1,.69,2.59,35.86,35.86,0,0,1,.53,6.31v36.6H891.7v-23.8H877.8c-3.26,0-5.7.52-7.26,1.53-1.31.85-1.94,2.41-1.94,4.77,0,3.33,1.25,4.16,1.66,4.44.93.62,2.94,1.36,7.24,1.36a30.46,30.46,0,0,0,3.43-.19,14.4,14.4,0,0,0,2.78-.52l2.59-.8v12.53l-1.47.41a35.52,35.52,0,0,1-4.55.9A40.65,40.65,0,0,1,874.6,305.44Z"/><path class="cls-49" d="M874.6,303.44a25.23,25.23,0,0,1-9.3-1.65,13.9,13.9,0,0,1-6.65-5.3q-2.46-3.64-2.45-9.55,0-7.89,5.3-12.3t15.7-4.4h16.5v-3.4q0-5.89-3-8.25t-11-2.35a66.47,66.47,0,0,0-9,.6,47.53,47.53,0,0,0-8.6,2v-8.4a60.29,60.29,0,0,1,9.1-2.15,65,65,0,0,1,10.4-.85,48.78,48.78,0,0,1,4.95.25,33.3,33.3,0,0,1,4.35.75H909l-.6,8.5h-6.3a13.91,13.91,0,0,1,1.9,4.95,33.68,33.68,0,0,1,.5,5.95v34.6H893.7v-23.8H877.8q-5.5,0-8.35,1.85t-2.85,6.45q0,4.41,2.55,6.1c1.7,1.14,4.48,1.7,8.35,1.7a32.39,32.39,0,0,0,3.65-.2,16.67,16.67,0,0,0,3.15-.6v8.3a34,34,0,0,1-4.3.85A39.62,39.62,0,0,1,874.6,303.44Z"/><path class="cls-89" d="M937.2,304.44v-36a19.89,19.89,0,0,0-.8-6.16,5,5,0,0,0-2.45-2.93,14.38,14.38,0,0,0-6.45-1.11,36.62,36.62,0,0,0-6.59.67,33.88,33.88,0,0,0-6.37,1.79l-2.74,1.1V249.13l1.2-.52a38.43,38.43,0,0,1,7.66-2.28,45.71,45.71,0,0,1,8.94-.89c7.7,0,13.43,1.77,17,5.27s5.46,9,5.46,16.33v37.4Zm-36.6-59.8a13.22,13.22,0,0,1-9.37-3.64,12.1,12.1,0,0,1-3.93-9.16,12.22,12.22,0,0,1,3.93-9.26,13.26,13.26,0,0,1,9.37-3.64,13.05,13.05,0,0,1,9.33,3.66,12.86,12.86,0,0,1,0,18.39A13.08,13.08,0,0,1,900.6,244.64Zm0-15.6a2.69,2.69,0,0,0-2,.84,2.55,2.55,0,0,0-.84,2,2.28,2.28,0,0,0,.84,1.76,2.65,2.65,0,0,0,2,.84,2.33,2.33,0,0,0,1.81-.79,2.48,2.48,0,0,0,.79-1.81,2.73,2.73,0,0,0-.79-2A2.38,2.38,0,0,0,900.6,229Z"/><path class="cls-50" d="M900.6,242.64a11.25,11.25,0,0,1-8-3.1,10.12,10.12,0,0,1-3.3-7.7,10.26,10.26,0,0,1,3.3-7.8,11.29,11.29,0,0,1,8-3.1,11.12,11.12,0,0,1,7.95,3.1,10.36,10.36,0,0,1,3.25,7.8,10.22,10.22,0,0,1-3.25,7.7A11.08,11.08,0,0,1,900.6,242.64Zm0-6.2a4.32,4.32,0,0,0,3.25-1.4,4.48,4.48,0,0,0,1.35-3.2,4.73,4.73,0,0,0-1.35-3.4,4.36,4.36,0,0,0-3.25-1.4,4.69,4.69,0,0,0-3.35,1.4,4.55,4.55,0,0,0-1.45,3.4,4.32,4.32,0,0,0,1.45,3.2A4.65,4.65,0,0,0,900.6,236.44Zm38.6,66v-34a21.83,21.83,0,0,0-.9-6.8,7,7,0,0,0-3.4-4.05q-2.5-1.35-7.4-1.35a38.58,38.58,0,0,0-7,.7,36.19,36.19,0,0,0-6.75,1.9v-8.4a36.79,36.79,0,0,1,7.25-2.15,44,44,0,0,1,8.55-.85q10.8,0,15.65,4.7T950.1,267v35.4Z"/><path class="cls-90" d="M997.2,304.44v-20.6c0-4.09-.87-5.8-1.6-6.52s-2.5-1.58-6.7-1.58H975.7v28.7H960.8v-58h14.9v17h13.6c3.27,0,5.57-.65,6.65-1.87s1.75-3.38,1.75-6.13v-9h14.8v8.7a22.82,22.82,0,0,1-1.94,9.64,11.68,11.68,0,0,1-3.81,4.62,10.12,10.12,0,0,1,3.58,4.29,22.07,22.07,0,0,1,1.67,8.85v21.9Z"/><path class="cls-51" d="M962.8,302.44v-54h10.9v17h15.6q5.9,0,8.15-2.55t2.25-7.45v-7h10.8v6.7a20.91,20.91,0,0,1-1.75,8.8,10.63,10.63,0,0,1-6.35,5.5c3.06,1.07,5.1,2.75,6.1,5.05a20.07,20.07,0,0,1,1.5,8.05v19.9H999.2v-18.6c0-3.86-.74-6.51-2.2-7.95s-4.17-2.15-8.1-2.15H973.7v28.7Z"/><path class="cls-91" d="M1040.9,305.44a75.16,75.16,0,0,1-10.53-.72,36.58,36.58,0,0,1-8.63-2.13l-1.24-.5V288.7l2.73,1.08a40.81,40.81,0,0,0,7.87,2.19,44.45,44.45,0,0,0,7.8.77c4.33,0,7.53-.38,9.49-1.12,1-.37,2-1.07,2-3.38a3.66,3.66,0,0,0-1-2.9,13.34,13.34,0,0,0-4.33-2.26c-2.18-.76-4.93-1.68-8.17-2.74a66.08,66.08,0,0,1-8.59-3.62,18.44,18.44,0,0,1-6.54-5.39,13.89,13.89,0,0,1-2.54-8.49,15.4,15.4,0,0,1,6.18-12.83c3.94-3,9.83-4.57,17.52-4.57a61.51,61.51,0,0,1,9.4.73,46.58,46.58,0,0,1,7.75,1.78l1.35.46v13.37l-2.74-1.08a33.5,33.5,0,0,0-6.93-1.83,45.54,45.54,0,0,0-7.23-.63,26.35,26.35,0,0,0-8.63,1.14,2.91,2.91,0,0,0-2.17,3.16,2.78,2.78,0,0,0,1,2.39,15.24,15.24,0,0,0,4.54,2.27l8,2.75a49.85,49.85,0,0,1,9.24,3.9,17.16,17.16,0,0,1,6.16,5.68,16.2,16.2,0,0,1,2.16,8.71c0,6-2.33,10.45-6.91,13.26C1053.72,304.11,1048,305.44,1040.9,305.44Z"/><path class="cls-52" d="M1040.9,303.44a72.58,72.58,0,0,1-10.25-.7,34.5,34.5,0,0,1-8.15-2v-9.1a42.91,42.91,0,0,0,8.25,2.3,45.64,45.64,0,0,0,8.15.8c4.6,0,8-.41,10.2-1.25s3.3-2.58,3.3-5.25a5.57,5.57,0,0,0-1.7-4.4,15.21,15.21,0,0,0-5-2.65c-2.2-.76-4.94-1.68-8.2-2.75a62.8,62.8,0,0,1-8.3-3.5,16.3,16.3,0,0,1-5.85-4.8,11.86,11.86,0,0,1-2.15-7.3,13.45,13.45,0,0,1,5.4-11.25q5.4-4.14,16.3-4.15a60,60,0,0,1,9.1.7,45.13,45.13,0,0,1,7.4,1.7v9a36.13,36.13,0,0,0-7.35-1.95,48.25,48.25,0,0,0-7.55-.65,28.39,28.39,0,0,0-9.3,1.25,4.9,4.9,0,0,0-3.5,5.05,4.79,4.79,0,0,0,1.8,3.95,16.83,16.83,0,0,0,5.15,2.6q3.35,1.16,8,2.75a48.32,48.32,0,0,1,8.9,3.75,15.16,15.16,0,0,1,5.45,5,14.25,14.25,0,0,1,1.85,7.65q0,7.9-6,11.55T1040.9,303.44Z"/><polygon class="cls-92" points="1035.19 242.24 1035.19 223.64 1048.19 223.64 1048.19 230.64 1074.23 230.64 1073.47 242.24 1035.19 242.24"/><path class="cls-53" d="M1037.2,240.24v-14.6h9v7h25.89l-.5,7.6Z"/><path class="cls-93" d="M1098.29,305.44c-8.18,0-14.72-2-19.43-6s-7.27-10.11-7.27-18v-35h14.91v35.4c0,3.85,1,6.64,2.86,8.3s5,2.6,8.93,2.6,7.06-.88,9-2.6,2.87-4.46,2.87-8.3v-35.4H1125v35c0,7.92-2.43,14-7.21,18S1106.54,305.44,1098.29,305.44Z"/><path class="cls-54" d="M1098.29,303.44q-11.6,0-18.15-5.5t-6.55-16.5v-33h10.91v33.4q0,6.71,3.54,9.8t10.25,3.1q6.81,0,10.35-3.1t3.56-9.8v-33.4H1123v33q0,11-6.5,16.5T1098.29,303.44Z"/><path class="cls-94" d="M1175.53,304.44l-13.94-24.65-14,24.65h-13.87v-45.9a12.69,12.69,0,0,1,2.94-8.55,10.73,10.73,0,0,1,8.56-3.55h12.19l.74,12.4h-7.33c-1.46,0-1.93.35-2.07.5s-.53.76-.53,2.4v18.63l10-17.43H1165l10,17.43V246.44h14.4v58Z"/><path class="cls-55" d="M1135.69,302.44v-43.9a10.75,10.75,0,0,1,2.45-7.25,8.81,8.81,0,0,1,7-2.85h10.3l.5,8.4h-5.2a4.67,4.67,0,0,0-3.55,1.15,5.49,5.49,0,0,0-1,3.75v26.1l13.2-22.9h4.4l13.2,22.9v-39.4h10.4v54h-10.7l-15.1-26.7-15.2,26.7Z"/><path class="cls-95" d="M1175.29,330.54c-4.1,0-7.42-1-9.87-2.87a9.33,9.33,0,0,1-3.93-7.63v-3.1H1156l.64-10.8h16.68v12.1c0,.67,0,1.3,2,1.3s2.1-.66,2.1-1.3v-12.1h11.9v12.8a10.94,10.94,0,0,1-3.62,8.2C1183.3,329.4,1179.8,330.54,1175.29,330.54Z"/><path class="cls-56" d="M1175.29,328.54c-3.66,0-6.55-.82-8.65-2.45a7.4,7.4,0,0,1-3.15-6v-5.1h-5.4l.4-6.8h12.8v10.1c0,2.2,1.34,3.3,4,3.3s4.1-1.1,4.1-3.3v-10.1h7.9v10.8a9,9,0,0,1-3,6.75Q1181.29,328.54,1175.29,328.54Z"/><polygon class="cls-96" points="1162.49 242.24 1162.49 233.04 1154.59 233.04 1154.59 221.54 1173.99 221.54 1173.99 230.64 1195.7 230.64 1195.09 242.24 1162.49 242.24"/><path class="cls-57" d="M1164.49,240.24V231h-7.9v-7.5H1172v9.1h21.6l-.4,7.6Z"/><polygon class="cls-97" points="1238.99 304.44 1230.42 274.95 1221.16 304.44 1208.2 304.44 1194.78 246.44 1209.62 246.44 1216.4 279.15 1223.79 255.83 1223.79 246.44 1235.11 246.44 1244.17 278.54 1250.66 246.44 1265.4 246.44 1252.09 304.44 1238.99 304.44"/><path class="cls-58" d="M1209.79,302.44l-12.5-54H1208l8,38.6,9.8-30.9v-7.7h7.8l10.9,38.6,7.8-38.6h10.6l-12.4,54h-10l-10-34.4-10.8,34.4Z"/><polygon class="cls-98" points="1234.29 242.24 1234.29 223.64 1247.29 223.64 1247.29 230.64 1273.33 230.64 1272.57 242.24 1234.29 242.24"/><path class="cls-59" d="M1236.29,240.24v-14.6h9v7h25.9l-.5,7.6Z"/><path class="cls-99" d="M1341,305.44a27.91,27.91,0,0,1-11.15-2.06,35.11,35.11,0,0,1-5.56-3.07l-.35,4.13h-13.44v-40.9c0-2.74-.37-4-.68-4.63-.21-.42-1.08-.67-2.32-.67a4.42,4.42,0,0,0-2.54.77,4.53,4.53,0,0,0-1.66,2.46l-.46,1.37h-8.67l-.56-1.1a9.37,9.37,0,0,0-2-2.9,3.79,3.79,0,0,0-2.33-.6c-1.58,0-3.53.46-4.58,4.06a52.19,52.19,0,0,0-1.52,13.94c0,6.35,1,10.76,3,13.1s4.73,3.4,8.48,3.4a31.64,31.64,0,0,0,3.54-.19A14.29,14.29,0,0,0,1301,292l2.59-.8v12.43l-1.33.47a22.28,22.28,0,0,1-4.18,1,38.59,38.59,0,0,1-5.29.32,24.87,24.87,0,0,1-12.27-3.05,21.33,21.33,0,0,1-8.73-9.73c-2-4.29-3.1-9.81-3.1-16.42,0-9.66,1.63-17.22,4.85-22.45,3.41-5.54,8.2-8.35,14.25-8.35a14.56,14.56,0,0,1,7.54,1.74,17.38,17.38,0,0,1,3.29,2.59,18.78,18.78,0,0,1,4.41-2.7,18.4,18.4,0,0,1,7.56-1.63c5,0,8.68,1.56,11,4.63S1325,257,1325,261.94v25.49a20.13,20.13,0,0,0,5.24,3.67,16,16,0,0,0,7.16,1.64c3.09,0,5.31-.68,6.61-2s2-3.85,2-7.37v-36.9h14.9v37.4c0,6.75-1.74,12.09-5.17,15.85S1347.29,305.44,1341,305.44Z"/><path class="cls-60" d="M1292.79,303.44a22.71,22.71,0,0,1-11.3-2.8,19.28,19.28,0,0,1-7.9-8.85q-2.89-6-2.9-15.55,0-14,4.55-21.4t12.55-7.4a12.57,12.57,0,0,1,6.5,1.45,15.57,15.57,0,0,1,4.2,3.75,16.05,16.05,0,0,1,5.35-3.75,16.52,16.52,0,0,1,6.75-1.45q6.51,0,9.45,3.85t3,10.65v26.3a21.56,21.56,0,0,0,6.35,4.65,17.88,17.88,0,0,0,8.05,1.85q5.5,0,8-2.65t2.55-8.75v-34.9h10.9v35.4q0,9.41-4.65,14.5t-13.25,5.1a25.67,25.67,0,0,1-10.35-1.9,32.89,32.89,0,0,1-8.05-5l-.5,5.9h-9.6v-38.9a12.81,12.81,0,0,0-.9-5.55c-.6-1.16-2-1.75-4.1-1.75a6.47,6.47,0,0,0-3.65,1.1,6.54,6.54,0,0,0-2.45,3.5h-6a11.5,11.5,0,0,0-2.45-3.5,5.38,5.38,0,0,0-3.65-1.1c-3.26,0-5.43,1.84-6.5,5.5a53.74,53.74,0,0,0-1.6,14.5q0,10.31,3.5,14.4t10,4.1a33.15,33.15,0,0,0,3.75-.2,16.36,16.36,0,0,0,3.15-.6v8.3a19.81,19.81,0,0,1-3.8.9A35.87,35.87,0,0,1,1292.79,303.44Z"/><path class="cls-100" d="M1390,305.44c-6.34,0-11.39-1.92-15-5.72s-5.41-9.11-5.41-15.88v-37.4h14.9v36.9c0,3.49.71,6,2.1,7.32s3.76,2.08,7,2.08a17.91,17.91,0,0,0,7.56-1.66,19.4,19.4,0,0,0,5.44-3.65v-41h14.8v58h-13.73l-.36-4.15a33.76,33.76,0,0,1-5.9,3.1A30.1,30.1,0,0,1,1390,305.44Z"/><path class="cls-61" d="M1390,303.44q-8.7,0-13.55-5.1t-4.85-14.5v-35.4h10.9v34.9q0,6.11,2.7,8.75t8.4,2.65a19.64,19.64,0,0,0,8.4-1.85,20.58,20.58,0,0,0,6.6-4.65v-39.8h10.8v54h-9.9l-.5-5.9a31,31,0,0,1-8.35,5A27.91,27.91,0,0,1,1390,303.44Z"/><path class="cls-101" d="M1450.49,304.44v-36a20.23,20.23,0,0,0-.79-6.16,5,5,0,0,0-2.46-2.93,14.32,14.32,0,0,0-6.45-1.11,36.51,36.51,0,0,0-6.58.67,34,34,0,0,0-6.38,1.79l-2.74,1.1V249.13l1.21-.52a38.33,38.33,0,0,1,7.65-2.28,45.71,45.71,0,0,1,8.94-.89c7.7,0,13.44,1.77,17,5.27s5.46,9,5.46,16.33v37.4Z"/><path class="cls-62" d="M1452.49,302.44v-34a21.83,21.83,0,0,0-.9-6.8,6.93,6.93,0,0,0-3.4-4.05q-2.49-1.35-7.4-1.35a38.67,38.67,0,0,0-7,.7,36.19,36.19,0,0,0-6.75,1.9v-8.4a37,37,0,0,1,7.25-2.15,44.11,44.11,0,0,1,8.55-.85q10.8,0,15.65,4.7t4.85,14.9v35.4Z"/><path class="cls-102" d="M1466.71,311.64l4.08-3.51a36.74,36.74,0,0,0,10.82-15.61,65,65,0,0,0,0-40.76,36.71,36.71,0,0,0-10.82-15.6l-4.08-3.52h18.55l.57.51a35.61,35.61,0,0,1,8.32,11.18,55,55,0,0,1,4.41,13.59,78.09,78.09,0,0,1,1.33,14.22,78.88,78.88,0,0,1-1.33,14.27,53.79,53.79,0,0,1-4.42,13.6,36,36,0,0,1-8.31,11.12l-.57.51Z"/><path class="cls-63" d="M1472.09,309.64a38.55,38.55,0,0,0,11.4-16.45,66.86,66.86,0,0,0,0-42.1,38.61,38.61,0,0,0-11.4-16.45h12.4a33.39,33.39,0,0,1,7.85,10.55,52.48,52.48,0,0,1,4.25,13.1,74.69,74.69,0,0,1,0,27.75,51.43,51.43,0,0,1-4.25,13.1,33.4,33.4,0,0,1-7.85,10.5Z"/></g></g></svg>